<?xml version="1.0" encoding="UTF-8" standalone="no"?>
<!-- Created with Inkscape (http://www.inkscape.org/) -->

<svg
   xmlns:dc="http://purl.org/dc/elements/1.1/"
   xmlns:cc="http://creativecommons.org/ns#"
   xmlns:rdf="http://www.w3.org/1999/02/22-rdf-syntax-ns#"
   xmlns:svg="http://www.w3.org/2000/svg"
   xmlns="http://www.w3.org/2000/svg"
   xmlns:sodipodi="http://sodipodi.sourceforge.net/DTD/sodipodi-0.dtd"
   xmlns:inkscape="http://www.inkscape.org/namespaces/inkscape"
   width="210mm"
   height="297mm"
   viewBox="0 0 210 297"
   version="1.1"
   id="svg8"
   inkscape:version="0.92.4 (5da689c313, 2019-01-14)"
   sodipodi:docname="drawing.svg">
  <defs
     id="defs2" />
  <sodipodi:namedview
     id="base"
     pagecolor="#ffffff"
     bordercolor="#666666"
     borderopacity="1.0"
     inkscape:pageopacity="0.0"
     inkscape:pageshadow="2"
     inkscape:zoom="0.35"
     inkscape:cx="-35.121132"
     inkscape:cy="420.5667"
     inkscape:document-units="mm"
     inkscape:current-layer="layer1"
     showgrid="false"
     inkscape:window-width="1920"
     inkscape:window-height="1001"
     inkscape:window-x="-9"
     inkscape:window-y="-9"
     inkscape:window-maximized="1"
     showguides="true"
     inkscape:guide-bbox="true" />
  <metadata
     id="metadata5">
    <rdf:RDF>
      <cc:Work
         rdf:about="">
        <dc:format>image/svg+xml</dc:format>
        <dc:type
           rdf:resource="http://purl.org/dc/dcmitype/StillImage" />
        <dc:title></dc:title>
      </cc:Work>
    </rdf:RDF>
  </metadata>
  <g
     inkscape:label="Layer 1"
     inkscape:groupmode="layer"
     id="layer1">
    <path
       id="path2853"
       inkscape:label="part"
       style="stroke:#000000;stroke-width:1;fill:none"
       d="M 47.0,146.099999905 L 56.9549999991,146.099999905 L 56.9549999991,143.0 L 67.0450000009,143.0 L 67.0450000009,146.099999905 L 76.9549999991,146.099999905 L 76.9549999991,143.0 L 87.0450000009,143.0 L 87.0450000009,146.099999905 L 96.9549999991,146.099999905 L 96.9549999991,143.0 L 107.045000001,143.0 L 107.045000001,146.099999905 L 116.954999999,146.099999905 L 116.954999999,143.0 L 127.045000001,143.0 L 127.045000001,146.099999905 L 136.954999999,146.099999905 L 136.954999999,143.0 L 147.045000001,143.0 L 147.045000001,146.099999905 L 156.954999999,146.099999905 L 156.954999999,143.0 L 167.045000001,143.0 L 167.045000001,146.099999905 L 177.0,146.099999905 " />
    <path
       id="path2855"
       inkscape:label="part"
       style="stroke:#000000;stroke-width:1;fill:none"
       d="M 110.450000048,158.045000001 L 110.450000048,172.954999999 L 113.549999952,172.954999999 L 113.549999952,158.045000001 L 110.450000048,158.045000001 " />
    <path
       id="path2857"
       inkscape:label="part"
       style="stroke:#000000;stroke-width:1;fill:none"
       d="M 177.0,146.099999905 L 177.0,158.045000001 L 173.900000095,158.045000001 L 173.900000095,172.954999999 L 177.0,172.954999999 L 177.0,184.900000095 " />
    <path
       id="path2859"
       inkscape:label="part"
       style="stroke:#000000;stroke-width:1;fill:none"
       d="M 177.0,184.900000095 L 167.045000001,184.900000095 L 167.045000001,188.0 L 156.954999999,188.0 L 156.954999999,184.900000095 L 147.045000001,184.900000095 L 147.045000001,188.0 L 136.954999999,188.0 L 136.954999999,184.900000095 L 127.045000001,184.900000095 L 127.045000001,188.0 L 116.954999999,188.0 L 116.954999999,184.900000095 L 107.045000001,184.900000095 L 107.045000001,188.0 L 96.9549999991,188.0 L 96.9549999991,184.900000095 L 87.0450000009,184.900000095 L 87.0450000009,188.0 L 76.9549999991,188.0 L 76.9549999991,184.900000095 L 67.0450000009,184.900000095 L 67.0450000009,188.0 L 56.9549999991,188.0 L 56.9549999991,184.900000095 L 47.0,184.900000095 " />
    <path
       id="path2861"
       inkscape:label="part"
       style="stroke:#000000;stroke-width:1;fill:none"
       d="M 47.0,184.900000095 L 47.0,172.954999999 L 50.0999999046,172.954999999 L 50.0999999046,158.045000001 L 47.0,158.045000001 L 47.0,146.099999905 " />
    <path
       id="path2863"
       inkscape:label="part"
       style="stroke:#000000;stroke-width:1;fill:none"
       d="M 4.09999990463,50.0999999046 L 15.9549999991,50.0999999046 L 15.9549999991,47.0 L 31.0450000009,47.0 L 31.0450000009,50.0999999046 L 42.9000000954,50.0999999046 " />
    <path
       id="path2865"
       inkscape:label="part"
       style="stroke:#000000;stroke-width:1;fill:none"
       d="M 42.9000000954,50.0999999046 L 42.9000000954,57.5105555547 L 46.0,57.5105555547 L 46.0,68.156111112 L 42.9000000954,68.156111112 L 42.9000000954,78.6216666658 L 46.0,78.6216666658 L 46.0,89.2672222231 L 42.9000000954,89.2672222231 L 42.9000000954,99.7327777769 L 46.0,99.7327777769 L 46.0,110.378333334 L 42.9000000954,110.378333334 L 42.9000000954,120.843888888 L 46.0,120.843888888 L 46.0,131.489444445 L 42.9000000954,131.489444445 L 42.9000000954,138.900000095 " />
    <path
       id="path2867"
       inkscape:label="part"
       style="stroke:#000000;stroke-width:1;fill:none"
       d="M 42.9000000954,138.900000095 L 31.0450000009,138.900000095 L 31.0450000009,142.0 L 15.9549999991,142.0 L 15.9549999991,138.900000095 L 4.09999990463,138.900000095 " />
    <path
       id="path2869"
       inkscape:label="part"
       style="stroke:#000000;stroke-width:1;fill:none"
       d="M 4.09999990463,138.900000095 L 4.09999990463,131.489444445 L 1.0,131.489444445 L 1.0,120.843888888 L 4.09999990463,120.843888888 L 4.09999990463,110.378333334 L 1.0,110.378333334 L 1.0,99.7327777769 L 4.09999990463,99.7327777769 L 4.09999990463,89.2672222231 L 1.0,89.2672222231 L 1.0,78.6216666658 L 4.09999990463,78.6216666658 L 4.09999990463,68.156111112 L 1.0,68.156111112 L 1.0,57.5105555547 L 4.09999990463,57.5105555547 L 4.09999990463,50.0999999046 " />
    <path
       id="path2877"
       style="fill:none;stroke:#000000;stroke-width:1"
       d="m 8.2000003,273.7 v -7.41056 0 -10.64555 0 -10.46556 0 -10.64555 0 -10.46556 0 -10.64555 0 -10.46556 0 -10.64555 0 V 184.9 M 47,273.7 H 35.145 v 3.1 h -15.09 v -3.1 H 8.2000003 M 47,184.9 l -9.071429,8.16651 v 0 10.64555 0 10.46556 0 L 47,224.06722 v 0 10.46556 0 l -7.559524,8.37769 v 0 10.46556 0 10.64555 0 L 47,273.7 M 8.2000003,184.9 H 20.055 v -3.1 h 15.09 v 3.1 H 47"
       inkscape:connector-curvature="0"
       sodipodi:nodetypes="cccccccccccccccccccccccccccccccccccccccccccccccc" />
    <path
       id="path2879"
       inkscape:label="part"
       style="stroke:#000000;stroke-width:1;fill:none"
       d="M 47.0,47.0 L 57.0450000009,47.0 L 57.0450000009,50.0999999046 L 66.9549999991,50.0999999046 L 66.9549999991,47.0 L 77.0450000009,47.0 L 77.0450000009,50.0999999046 L 86.9549999991,50.0999999046 L 86.9549999991,47.0 L 97.0450000009,47.0 L 97.0450000009,50.0999999046 L 106.954999999,50.0999999046 L 106.954999999,47.0 L 117.045000001,47.0 L 117.045000001,50.0999999046 L 126.954999999,50.0999999046 L 126.954999999,47.0 L 137.045000001,47.0 L 137.045000001,50.0999999046 L 146.954999999,50.0999999046 L 146.954999999,47.0 L 157.045000001,47.0 L 157.045000001,50.0999999046 L 166.954999999,50.0999999046 L 166.954999999,47.0 L 177.0,47.0 " />
    <path
       id="path2881"
       inkscape:label="part"
       style="stroke:#000000;stroke-width:1;fill:none"
       d="M 177.0,47.0 L 177.0,57.6005555564 L 173.900000095,57.6005555564 L 173.900000095,68.0661111103 L 177.0,68.0661111103 L 177.0,78.7116666675 L 173.900000095,78.7116666675 L 173.900000095,89.1772222214 L 177.0,89.1772222214 L 177.0,99.8227777786 L 173.900000095,99.8227777786 L 173.900000095,110.288333332 L 177.0,110.288333332 L 177.0,120.93388889 L 173.900000095,120.93388889 L 173.900000095,131.399444444 L 177.0,131.399444444 L 177.0,142.0 " />
    <path
       id="path2883"
       inkscape:label="part"
       style="stroke:#000000;stroke-width:1;fill:none"
       d="M 177.0,142.0 L 166.954999999,142.0 L 166.954999999,138.900000095 L 157.045000001,138.900000095 L 157.045000001,142.0 L 146.954999999,142.0 L 146.954999999,138.900000095 L 137.045000001,138.900000095 L 137.045000001,142.0 L 126.954999999,142.0 L 126.954999999,138.900000095 L 117.045000001,138.900000095 L 117.045000001,142.0 L 106.954999999,142.0 L 106.954999999,138.900000095 L 97.0450000009,138.900000095 L 97.0450000009,142.0 L 86.9549999991,142.0 L 86.9549999991,138.900000095 L 77.0450000009,138.900000095 L 77.0450000009,142.0 L 66.9549999991,142.0 L 66.9549999991,138.900000095 L 57.0450000009,138.900000095 L 57.0450000009,142.0 L 47.0,142.0 " />
    <path
       id="path2885"
       inkscape:label="part"
       style="stroke:#000000;stroke-width:1;fill:none"
       d="M 47.0,142.0 L 47.0,131.399444444 L 50.0999999046,131.399444444 L 50.0999999046,120.93388889 L 47.0,120.93388889 L 47.0,110.288333332 L 50.0999999046,110.288333332 L 50.0999999046,99.8227777786 L 47.0,99.8227777786 L 47.0,89.1772222214 L 50.0999999046,89.1772222214 L 50.0999999046,78.7116666675 L 47.0,78.7116666675 L 47.0,68.0661111103 L 50.0999999046,68.0661111103 L 50.0999999046,57.6005555564 L 47.0,57.6005555564 L 47.0,47.0 " />
    <path
       id="path2887"
       inkscape:label="part"
       style="stroke:#000000;stroke-width:1;fill:none"
       d="M 181.099999905,50.0999999046 L 192.954999999,50.0999999046 L 192.954999999,47.0 L 208.045000001,47.0 L 208.045000001,50.0999999046 L 219.900000095,50.0999999046 " />
    <path
       id="path2889"
       inkscape:label="part"
       style="stroke:#000000;stroke-width:1;fill:none"
       d="M 219.900000095,50.0999999046 L 219.900000095,57.5105555547 L 223.0,57.5105555547 L 223.0,68.156111112 L 219.900000095,68.156111112 L 219.900000095,78.6216666658 L 223.0,78.6216666658 L 223.0,89.2672222231 L 219.900000095,89.2672222231 L 219.900000095,99.7327777769 L 223.0,99.7327777769 L 223.0,110.378333334 L 219.900000095,110.378333334 L 219.900000095,120.843888888 L 223.0,120.843888888 L 223.0,131.489444445 L 219.900000095,131.489444445 L 219.900000095,138.900000095 " />
    <path
       id="path2891"
       inkscape:label="part"
       style="stroke:#000000;stroke-width:1;fill:none"
       d="M 219.900000095,138.900000095 L 208.045000001,138.900000095 L 208.045000001,142.0 L 192.954999999,142.0 L 192.954999999,138.900000095 L 181.099999905,138.900000095 " />
    <path
       id="path2893"
       inkscape:label="part"
       style="stroke:#000000;stroke-width:1;fill:none"
       d="M 181.099999905,138.900000095 L 181.099999905,131.489444445 L 178.0,131.489444445 L 178.0,120.843888888 L 181.099999905,120.843888888 L 181.099999905,110.378333334 L 178.0,110.378333334 L 178.0,99.7327777769 L 181.099999905,99.7327777769 L 181.099999905,89.2672222231 L 178.0,89.2672222231 L 178.0,78.6216666658 L 181.099999905,78.6216666658 L 181.099999905,68.156111112 L 178.0,68.156111112 L 178.0,57.5105555547 L 181.099999905,57.5105555547 L 181.099999905,50.0999999046 " />
    <path
       id="path2895"
       inkscape:label="part"
       style="stroke:#000000;stroke-width:1;fill:none"
       d="M 224.0,47.0 L 234.045000001,47.0 L 234.045000001,50.0999999046 L 243.954999999,50.0999999046 L 243.954999999,47.0 L 254.045000001,47.0 L 254.045000001,50.0999999046 L 263.954999999,50.0999999046 L 263.954999999,47.0 L 274.045000001,47.0 L 274.045000001,50.0999999046 L 283.954999999,50.0999999046 L 283.954999999,47.0 L 294.045000001,47.0 L 294.045000001,50.0999999046 L 303.954999999,50.0999999046 L 303.954999999,47.0 L 314.045000001,47.0 L 314.045000001,50.0999999046 L 323.954999999,50.0999999046 L 323.954999999,47.0 L 334.045000001,47.0 L 334.045000001,50.0999999046 L 343.954999999,50.0999999046 L 343.954999999,47.0 L 354.0,47.0 " />
    <path
       id="path2897"
       inkscape:label="part"
       style="stroke:#000000;stroke-width:1;fill:none"
       d="M 354.0,47.0 L 354.0,57.6005555564 L 350.900000095,57.6005555564 L 350.900000095,68.0661111103 L 354.0,68.0661111103 L 354.0,78.7116666675 L 350.900000095,78.7116666675 L 350.900000095,89.1772222214 L 354.0,89.1772222214 L 354.0,99.8227777786 L 350.900000095,99.8227777786 L 350.900000095,110.288333332 L 354.0,110.288333332 L 354.0,120.93388889 L 350.900000095,120.93388889 L 350.900000095,131.399444444 L 354.0,131.399444444 L 354.0,142.0 " />
    <path
       id="path2899"
       inkscape:label="part"
       style="fill:none;stroke:#000000;stroke-width:1"
       d="m 354,142 h -10.045 v -3.1 h -9.91 v 3.1 h -10.09 v -3.1 h -9.91 v 3.1 h -10.09 v -3.1 c -3.16311,-0.14022 -6.39377,-0.2129 -9.91,0 v 7.33333 c -5.19492,3.94455 -7.68506,1.96714 -10.09,0 V 138.9 h -9.91 v 3.1 h -10.09 v -3.1 h -9.91 v 3.1 h -10.09 v -3.1 h -9.91 V 142 H 224"
       inkscape:connector-curvature="0"
       sodipodi:nodetypes="cccccccccccccccccccccccccc" />
    <path
       id="path2901"
       inkscape:label="part"
       style="stroke:#000000;stroke-width:1;fill:none"
       d="M 224.0,142.0 L 224.0,131.399444444 L 227.099999905,131.399444444 L 227.099999905,120.93388889 L 224.0,120.93388889 L 224.0,110.288333332 L 227.099999905,110.288333332 L 227.099999905,99.8227777786 L 224.0,99.8227777786 L 224.0,89.1772222214 L 227.099999905,89.1772222214 L 227.099999905,78.7116666675 L 224.0,78.7116666675 L 224.0,68.0661111103 L 227.099999905,68.0661111103 L 227.099999905,57.6005555564 L 224.0,57.6005555564 L 224.0,47.0 " />
    <path
       id="path2903"
       inkscape:label="part"
       style="stroke:#000000;stroke-width:1;fill:none"
       d="M 47.0,4.09999990463 L 56.9549999991,4.09999990463 L 56.9549999991,1.0 L 67.0450000009,1.0 L 67.0450000009,4.09999990463 L 76.9549999991,4.09999990463 L 76.9549999991,1.0 L 87.0450000009,1.0 L 87.0450000009,4.09999990463 L 96.9549999991,4.09999990463 L 96.9549999991,1.0 L 107.045000001,1.0 L 107.045000001,4.09999990463 L 116.954999999,4.09999990463 L 116.954999999,1.0 L 127.045000001,1.0 L 127.045000001,4.09999990463 L 136.954999999,4.09999990463 L 136.954999999,1.0 L 147.045000001,1.0 L 147.045000001,4.09999990463 L 156.954999999,4.09999990463 L 156.954999999,1.0 L 167.045000001,1.0 L 167.045000001,4.09999990463 L 177.0,4.09999990463 " />
    <path
       id="path2905"
       inkscape:label="part"
       style="stroke:#000000;stroke-width:1;fill:none"
       d="M 110.450000048,16.0450000009 L 110.450000048,30.9549999991 L 113.549999952,30.9549999991 L 113.549999952,16.0450000009 L 110.450000048,16.0450000009 " />
    <path
       id="path2907"
       inkscape:label="part"
       style="stroke:#000000;stroke-width:1;fill:none"
       d="M 177.0,4.09999990463 L 177.0,16.0450000009 L 173.900000095,16.0450000009 L 173.900000095,30.9549999991 L 177.0,30.9549999991 L 177.0,42.9000000954 " />
    <path
       id="path2909"
       inkscape:label="part"
       style="stroke:#000000;stroke-width:1;fill:none"
       d="M 177.0,42.9000000954 L 167.045000001,42.9000000954 L 167.045000001,46.0 L 156.954999999,46.0 L 156.954999999,42.9000000954 L 147.045000001,42.9000000954 L 147.045000001,46.0 L 136.954999999,46.0 L 136.954999999,42.9000000954 L 127.045000001,42.9000000954 L 127.045000001,46.0 L 116.954999999,46.0 L 116.954999999,42.9000000954 L 107.045000001,42.9000000954 L 107.045000001,46.0 L 96.9549999991,46.0 L 96.9549999991,42.9000000954 L 87.0450000009,42.9000000954 L 87.0450000009,46.0 L 76.9549999991,46.0 L 76.9549999991,42.9000000954 L 67.0450000009,42.9000000954 L 67.0450000009,46.0 L 56.9549999991,46.0 L 56.9549999991,42.9000000954 L 47.0,42.9000000954 " />
    <path
       id="path2911"
       inkscape:label="part"
       style="stroke:#000000;stroke-width:1;fill:none"
       d="M 47.0,42.9000000954 L 47.0,30.9549999991 L 50.0999999046,30.9549999991 L 50.0999999046,16.0450000009 L 47.0,16.0450000009 L 47.0,4.09999990463 " />
    <path
       style="fill:#000000;stroke-width:0.11150815"
       d="m 309.72583,133.15454 c -0.50047,-0.0907 -1.34534,-0.37984 -1.66987,-0.57145 -0.7109,-0.41976 -1.01256,-1.4758 -0.69623,-2.43738 0.15859,-0.4821 0.76856,-1.08854 1.34509,-1.33732 0.64754,-0.27942 1.98419,-0.3472 3.32468,-0.16859 0.60017,0.08 1.13213,0.12575 1.18214,0.10173 0.05,-0.024 0.0909,-0.41445 0.0909,-0.86764 0,-0.76704 -0.0187,-0.82811 -0.27146,-0.88401 -0.14931,-0.033 -0.55972,-0.1883 -0.91202,-0.34505 -0.35231,-0.15675 -1.14403,-0.4259 -1.7594,-0.59812 -1.53561,-0.42976 -3.44487,-1.11649 -4.02874,-1.44907 -0.26674,-0.15195 -0.72317,-0.46345 -1.01428,-0.69224 l -0.5293,-0.41598 0.0508,-0.69705 c 0.0496,-0.68132 0.36202,-1.53367 1.20729,-3.29411 0.49593,-1.03288 0.46241,-1.1211 -0.56049,-1.47505 -1.21048,-0.41886 -1.51828,-0.69834 -1.51828,-1.37857 0,-0.49485 0.21645,-1.12336 0.66575,-1.93311 0.0939,-0.16922 0.13124,-0.34108 0.083,-0.38191 -0.0482,-0.0408 -0.90482,-0.009 -1.90349,0.0706 -3.20654,0.25578 -7.84052,0.38978 -10.9092,0.31545 -1.60044,-0.0388 -3.52993,-0.0786 -4.28776,-0.0886 l -1.37787,-0.0181 -0.34731,0.87169 c -0.64299,1.61375 -1.50878,2.81804 -2.43314,3.38441 -0.49138,0.30108 -0.53229,0.30749 -1.96119,0.30749 -1.10262,0 -1.67599,-0.0514 -2.34572,-0.21037 -0.55076,-0.13072 -0.95663,-0.17714 -1.07188,-0.12259 -0.33202,0.15717 -1.99768,1.59197 -1.99768,1.72081 0,0.18693 0.16166,0.27515 1.87059,1.02079 1.60407,0.6999 3.36116,1.55737 4.00982,1.95685 0.20006,0.1232 0.56032,0.2772 0.80058,0.34222 0.80368,0.2175 0.97093,0.47655 1.0431,1.61565 0.0484,0.76341 0.0154,1.14906 -0.13547,1.58365 -0.31304,0.90188 -0.78202,1.17158 -2.22099,1.2773 -0.44375,0.0326 -0.90188,0.10231 -1.01808,0.15491 -0.35251,0.15957 -1.40341,0.11834 -1.4835,-0.0582 -0.10981,-0.24205 -0.33293,-0.18658 -1.21054,0.30097 -1.47994,0.82216 -3.35774,1.15035 -4.44972,0.77769 -1.16083,-0.39616 -2.65738,-1.60221 -2.89818,-2.3356 -0.2012,-0.6128 -0.15073,-1.68353 0.11307,-2.39852 0.48589,-1.31689 1.11442,-1.82324 2.36895,-1.90841 0.43559,-0.0296 0.82352,-0.0969 0.86205,-0.14966 0.10347,-0.14161 -0.44465,-0.59346 -0.71991,-0.59346 -0.13052,0 -0.47565,-0.2016 -0.76696,-0.44799 -0.4592,-0.38841 -0.52965,-0.50597 -0.52965,-0.88382 0,-0.41313 0.0559,-0.48196 1.07189,-1.32104 0.58953,-0.48687 1.31246,-1.05697 1.6065,-1.26689 l 0.53462,-0.38167 -0.84485,-0.65518 c -0.80458,-0.62394 -0.84388,-0.67579 -0.82446,-1.0876 0.0283,-0.60033 0.44597,-1.1475 1.6029,-2.09992 0.55518,-0.45704 0.97006,-0.88107 0.94967,-0.97062 -0.0241,-0.10609 -0.47991,-0.26927 -1.36908,-0.4902 -0.73307,-0.18214 -1.55111,-0.40095 -1.81785,-0.48625 -0.26674,-0.0853 -0.58383,-0.15711 -0.70464,-0.15959 -0.2498,-0.005 -1.99641,-0.70504 -2.09455,-0.83935 -0.15528,-0.2125 -1.08539,-0.0817 -1.62628,0.22873 -1.88513,1.08188 -3.66422,1.47561 -4.68237,1.03627 -1.44405,-0.62312 -1.83025,-1.74603 -0.77562,-2.25521 0.19903,-0.0961 0.38664,-0.22874 0.41691,-0.29477 0.0825,-0.18006 -0.49077,-0.6574 -0.70574,-0.58763 -0.17903,0.0581 -1.21048,1.39137 -1.92426,2.48734 -0.42034,0.64539 -1.53858,2.81782 -1.82892,3.55308 -0.11137,0.28202 -0.43545,0.99733 -0.72018,1.58957 -0.39877,0.82945 -0.57483,1.08382 -0.76643,1.10733 -0.30726,0.0377 -2.32906,-1.61822 -3.06341,-2.50905 -0.27116,-0.32893 -0.73991,-0.89803 -1.04168,-1.26465 -0.30177,-0.36663 -0.54875,-0.70692 -0.54883,-0.75622 -8e-5,-0.0493 -0.2128,-0.35896 -0.4727,-0.68816 -1.07713,-1.36433 -1.40588,-3.00807 -1.32929,-6.64643 l 0.0401,-1.90807 -1.10796,0.0366 c -2.2698,0.0749 -3.38527,-0.27459 -4.22222,-1.32305 -0.33598,-0.42088 -0.36436,-0.5257 -0.35984,-1.32862 0.004,-0.73771 0.0542,-0.95194 0.32565,-1.3937 0.37233,-0.606002 1.07558,-1.169502 1.46203,-1.171522 0.50203,-0.003 0.81419,-0.12237 0.81419,-0.31236 0,-0.49845 -1.07228,-1.41195 -2.03627,-1.73476 -0.2197,-0.0736 -0.65619,-0.37679 -0.96997,-0.67382 -0.31378,-0.29703 -0.92515,-0.75533 -1.3586,-1.01846 -1.21046,-0.73478 -2.52918,-1.96872 -3.09177,-2.89298 -0.44506,-0.73117 -0.48842,-0.87466 -0.52681,-1.74311 -0.0403,-0.91257 0.17027,-1.84487 0.48109,-2.12963 0.18372,-0.16831 0.11609,-0.52992 -0.13506,-0.72217 -0.13278,-0.10164 -0.38514,-0.39222 -0.5608,-0.64576 -0.2708,-0.39085 -0.3094,-0.54278 -0.25374,-0.99892 0.0921,-0.75452 0.3241,-1.07572 1.55366,-2.15076 1.0711,-0.93648 1.24215,-1.19408 0.90032,-1.35589 -0.098,-0.0464 -0.72727,-0.51849 -1.3984,-1.04914 -0.67112,-0.53064 -1.41746,-1.07817 -1.65854,-1.21672 -1.0674,-0.6135 -1.37246,-1.04436 -1.37178,-1.93749 4.6e-4,-0.8717 0.61461,-1.62267 1.93127,-2.36232 0.68818,-0.38658 2.37613,-0.84551 3.11235,-0.84618 0.20687,-2.1e-4 0.56004,-0.10519 0.78483,-0.23332 0.36827,-0.20992 0.42339,-0.30715 0.55716,-0.98288 0.0816,-0.41245 0.20921,-0.81184 0.28347,-0.88753 0.20365,-0.20755 1.66073,-0.56299 2.3079,-0.56299 1.01646,0 1.34058,-0.10723 1.98795,-0.65766 0.59476,-0.5057 0.95902,-0.95622 1.21656,-1.50464 0.0685,-0.1458 0.34682,-0.48341 0.61856,-0.75026 0.69237,-0.67992 1.0444,-0.73307 2.96143,-0.44716 1.72769,0.25768 4.23966,0.30857 4.69827,0.0952 0.35307,-0.16428 0.34393,-0.33614 -0.0457,-0.85811 -0.17513,-0.23466 -0.3953,-0.56832 -0.48926,-0.74147 -0.0939,-0.17314 -0.34006,-0.54555 -0.54691,-0.82757 -0.20685,-0.28202 -0.66021,-0.95117 -1.00747,-1.48701 -0.34726,-0.535839 -0.82696,-1.275261 -1.06602,-1.643164 -0.71946,-1.107247 -1.18544,-2.451133 -1.26573,-3.650377 -0.0882,-1.317369 0.0464,-1.778006 0.81014,-2.77188 0.32811,-0.427008 0.63143,-0.910602 0.67402,-1.07465 0.0426,-0.164044 0.26157,-0.463384 0.4866,-0.6652 0.39912,-0.357949 0.42633,-0.365484 1.11143,-0.30779 0.38627,0.03252 1.2479,0.09979 1.91475,0.14947 2.01497,0.15011 2.95825,0.48304 4.44252,1.567989 0.58909,0.430601 0.78828,0.68113 1.43675,1.807021 0.41405,0.718914 0.84976,1.468635 0.96823,1.666051 0.11846,0.197413 0.31068,0.612751 0.42714,0.922975 0.23029,0.613459 1.63453,3.072572 1.99107,3.48679 0.12138,0.141009 0.53246,0.671715 0.91351,1.179355 0.38105,0.50764 0.79915,1.03835 0.9291,1.17936 0.12994,0.14101 0.3748,0.4986 0.54414,0.79465 0.27366,0.47846 0.28766,0.55536 0.126,0.69209 -0.16166,0.13674 -0.21568,0.094 -0.48622,-0.38443 -0.1674,-0.29605 -0.71342,-1.06898 -1.21337,-1.71763 -1.68478,-2.185849 -2.76338,-3.880738 -3.55684,-5.589119 -0.67951,-1.463038 -1.67974,-3.141787 -2.14651,-3.602644 -0.86849,-0.85747 -2.33838,-1.435518 -3.79579,-1.49272 l -0.82222,-0.03229 v 0.350387 c 0,0.317538 0.0455,0.363259 0.48499,0.487675 0.73244,0.20734 1.61472,0.825156 2.39588,1.677726 1.01578,1.108631 2.3633,2.9353 3.23848,4.390004 1.20227,1.998392 2.5899,3.872651 3.58983,4.848721 0.31091,0.3035 0.73235,0.85178 0.9365,1.2184 0.43121,0.77434 0.51502,0.84052 0.96359,0.76082 0.34059,-0.0605 0.43168,0.038 0.20913,0.22627 -0.0839,0.0709 -0.33845,0.0723 -0.7827,0.004 -0.58181,-0.0892 -0.66705,-0.13426 -0.73276,-0.3873 -0.0863,-0.33238 -0.86269,-1.37886 -1.38082,-1.8612 -0.89096,-0.82943 -1.97525,-2.290515 -3.25282,-4.383183 -1.80992,-2.964661 -3.75867,-5.318781 -4.85493,-5.864817 -0.70966,-0.353477 -1.03267,-0.36183 -1.28718,-0.03329 -0.50612,0.653351 -1.8185,0.842353 -2.59628,0.373906 -0.48978,-0.294987 -0.567,-0.279832 -0.81358,0.159673 -0.32401,0.577521 -0.47015,1.979938 -0.30938,2.968889 0.15167,0.933044 0.62409,2.210638 0.96168,2.600735 0.12203,0.141013 0.42791,0.579424 0.67973,0.974254 0.41519,0.650956 1.52128,2.274853 2.54959,3.743173 0.21726,0.31022 0.49107,0.72556 0.60845,0.92297 0.24131,0.4058 1.64783,2.19979 1.96996,2.51263 0.36617,0.35562 1.15529,0.83387 1.8974,1.14996 0.42899,0.18271 0.65991,0.33441 0.57592,0.37832 -0.20849,0.10899 -0.16962,0.68417 0.0608,0.89952 0.11056,0.10333 0.23557,0.36078 0.2778,0.57211 0.0813,0.4066 0.0553,0.39879 0.91551,0.27592 0.20005,-0.0286 0.66382,-0.0659 1.03058,-0.0829 0.36677,-0.0171 0.9533,-0.13029 1.3034,-0.25167 0.35009,-0.12137 0.63653,-0.19632 0.63653,-0.16656 0,0.0298 0.23668,-0.0632 0.52595,-0.20661 0.28927,-0.14339 0.6344,-0.2607 0.76696,-0.2607 0.13256,0 0.36916,-0.11537 0.52578,-0.25638 0.15662,-0.14102 0.36031,-0.25639 0.45265,-0.25639 0.0923,0 0.13417,-0.0461 0.0929,-0.10255 -0.0412,-0.0564 -0.0192,-0.10255 0.0488,-0.10255 0.068,0 0.18016,-0.17727 0.24913,-0.39393 0.13898,-0.43656 0.38439,-0.66622 0.88337,-0.82668 0.43033,-0.13839 0.427,-0.6006 -0.005,-0.73963 -0.24675,-0.0794 -0.27887,-0.14826 -0.24211,-0.51934 0.0386,-0.39016 0.33923,-0.7111 0.33923,-0.3622 0,0.22981 0.48193,1.09838 0.60943,1.09838 0.0622,0 0.231,0.19546 0.37509,0.43435 0.2382,0.39491 0.25521,0.53686 0.18744,1.56392 -0.0593,0.89906 -0.16171,1.3553 -0.50169,2.23559 -0.53084,1.37449 -0.76794,1.77008 -1.6455,2.74539 -1.2334,1.37079 -2.09918,1.94015 -4.35181,2.86187 -1.78223,0.72925 -3.51507,0.91663 -5.26537,0.56938 -1.15046,-0.22825 -1.76821,-0.49523 -2.41843,-1.04519 -0.79919,-0.67598 -0.96458,-1.03613 -1.02773,-2.23789 -0.0644,-1.22621 -0.0634,-1.22739 1.3684,-1.63935 1.26028,-0.36259 2.85454,-1.00596 3.71539,-1.49936 0.9519,-0.54557 1.09898,-0.68577 0.99515,-0.94857 -0.0478,-0.12097 -0.11784,-0.40453 -0.15567,-0.63015 -0.0378,-0.22562 -0.12334,-0.4135 -0.19003,-0.41753 -0.1223,-0.007 -0.41811,-0.10787 -1.36726,-0.46446 -0.64785,-0.2434 -0.71153,-0.24261 -1.6086,0.02 -0.82811,0.2424 -2.5408,0.30612 -4.42012,0.16443 -2.90174,-0.21877 -3.94917,-0.61622 -3.74055,-1.41938 0.13048,-0.50231 0.34724,-0.71323 1.00246,-0.9754 l 0.67516,-0.27016 2.71137,0.056 2.71137,0.056 -0.0748,-0.31651 c -0.1623,-0.6864 -0.71643,-0.82475 -1.58753,-0.39638 -0.31167,0.15327 -0.53731,0.16823 -1.5762,0.10457 -0.69827,-0.0428 -1.51632,-0.16454 -1.92897,-0.28709 -1.00086,-0.29722 -2.07703,-0.35455 -2.51816,-0.13415 -0.18942,0.0946 -0.32749,0.21496 -0.30684,0.26737 0.0207,0.0524 -0.19706,0.29093 -0.48382,0.53004 -0.28675,0.23912 -0.52137,0.50906 -0.52137,0.59989 0,0.0908 -0.0436,0.16513 -0.0969,0.16513 -0.0533,0 -0.16194,0.14998 -0.24145,0.33329 -0.22478,0.51823 -1.06355,1.2814 -1.49679,1.36188 -0.20748,0.0385 -0.56189,0.16224 -0.78759,0.27487 -0.31167,0.15554 -0.54132,0.19122 -0.95499,0.14837 -0.29955,-0.031 -0.54464,-0.0173 -0.54464,0.0306 0,0.14219 -0.71011,0.3164 -0.79822,0.19582 -0.13863,-0.18974 -0.53258,0.29996 -0.66664,0.82869 -0.10465,0.41273 -0.23777,0.59505 -0.66881,0.91597 -0.30878,0.22989 -0.72445,0.43023 -0.97524,0.47002 -0.24039,0.0381 -0.52583,0.10956 -0.63432,0.1587 -0.10849,0.0491 -0.34348,0.11528 -0.5222,0.14697 -0.17872,0.0317 -0.40671,0.12678 -0.50663,0.2113 -0.0999,0.0845 -0.22846,0.15368 -0.28562,0.15368 -0.0572,0 -0.10392,0.0874 -0.10392,0.19417 0,0.15048 0.1151,0.20752 0.51138,0.25347 0.28127,0.0326 1.17886,0.24801 1.99466,0.47868 1.34448,0.38015 1.56807,0.41481 2.38948,0.37036 0.4984,-0.027 0.93949,-0.094 0.98018,-0.14893 0.0407,-0.0549 0.3468,-0.17276 0.68022,-0.26183 0.33343,-0.0891 0.93359,-0.26062 1.3337,-0.38122 0.42067,-0.1268 1.05985,-0.22541 1.51557,-0.23381 0.67608,-0.0124 0.93459,0.0416 1.81869,0.38037 1.73018,0.66295 2.50903,0.75998 4.48609,0.55892 0.24986,-0.0254 0.30971,0.0175 0.34069,0.24429 0.0499,0.36507 -0.22381,0.47965 -1.33494,0.55892 -1.17907,0.0841 -2.07807,-0.0814 -3.53314,-0.65042 -1.10788,-0.43325 -1.2465,-0.46288 -1.93993,-0.41463 -0.5266,0.0366 -1.18099,0.20687 -2.21936,0.57734 -1.10574,0.39449 -1.62263,0.52537 -2.07494,0.52537 -0.77056,0 -1.7443,-0.15405 -2.51478,-0.39786 -2.73756,-0.86623 -3.82934,-0.93575 -4.63764,-0.2953 -0.48885,0.38732 -0.263,1.74796 0.35838,2.15912 2.56342,1.69622 3.16852,2.15844 3.30629,2.52558 0.0634,0.16904 0.1462,0.19439 0.46445,0.14226 0.213,-0.0349 0.5415,-0.17166 0.73,-0.30394 0.39727,-0.27879 0.9041,-0.31515 1.01408,-0.0728 0.1103,0.24313 -0.0936,0.46984 -0.63701,0.70817 -0.73076,0.32051 -1.1166,0.55625 -1.19567,0.73052 -0.0705,0.15533 0.62288,1.23287 0.93368,1.45105 0.11411,0.0801 0.41362,0.0141 1.12201,-0.24719 1.71633,-0.6331 1.57767,-0.51328 1.53656,-1.32773 -0.0198,-0.39239 0.0181,-0.86585 0.0843,-1.05211 0.0955,-0.26875 0.0841,-0.35041 -0.0549,-0.39555 -0.23574,-0.0765 -0.22353,-0.51007 0.0165,-0.588 0.10548,-0.0342 0.34654,-0.0622 0.53569,-0.0622 0.18915,0 0.4302,0.028 0.53569,0.0622 0.24834,0.0806 0.24733,0.41404 -0.002,0.53188 -0.17019,0.0806 -0.17767,0.20038 -0.0623,0.99805 0.0721,0.49857 0.1979,0.94142 0.27955,0.9841 0.0817,0.0427 0.57481,0.0784 1.0959,0.0794 0.5211,7.8e-4 0.99657,0.0275 1.05661,0.0588 0.06,0.0314 0.24483,0.005 0.41064,-0.0591 0.29543,-0.11385 0.56541,-0.69169 0.56541,-1.21014 0,-0.11404 0.11366,-0.2588 0.25258,-0.32169 0.20271,-0.0918 0.30051,-0.0776 0.49542,0.0716 0.20692,0.15838 0.2312,0.26472 0.16415,0.71865 -0.0941,0.63678 0.13904,1.10792 0.63957,1.29266 1.84518,0.68108 3.46398,2.21244 3.98228,3.7672 0.2396,0.71872 0.20684,2.21247 -0.0622,2.83498 -0.82817,1.91645 -2.18135,3.13889 -4.60303,4.15829 -0.71124,0.29939 -1.26588,0.58316 -1.23254,0.63061 0.0952,0.1354 -0.47103,0.33594 -1.36401,0.48309 -0.57221,0.0943 -0.81841,0.18077 -0.81841,0.28745 0,0.0839 -0.0876,0.23449 -0.19476,0.33461 -0.17984,0.16808 -0.17355,0.20799 0.0822,0.52084 0.37149,0.4545 0.62888,0.66091 0.84364,0.67653 0.0981,0.007 0.32322,0.0424 0.50033,0.0785 0.31607,0.0643 0.54331,-0.0203 3.4183,-1.27301 0.32337,-0.1409 0.61564,-0.31725 0.64951,-0.39191 0.0339,-0.0747 0.12395,-0.13646 0.20017,-0.13734 0.0762,-7.7e-4 0.38411,-0.18475 0.68419,-0.40861 0.30008,-0.22385 0.5857,-0.40773 0.63471,-0.40861 0.18116,-0.003 1.50438,-1.13289 2.0327,-1.73532 0.57246,-0.65277 0.99317,-0.79507 1.06657,-0.36077 0.0623,0.3686 -1.30548,1.77742 -2.64277,2.72209 -1.76127,1.24417 -4.61088,2.5651 -6.18353,2.86635 -0.96937,0.18569 -1.40604,0.36248 -1.95398,0.79109 -2.47248,1.934032 -0.35772,4.068152 3.42915,3.460552 0.54735,-0.0878 1.08044,-0.22267 1.18465,-0.29965 0.27699,-0.20463 1.01816,-0.50835 0.92312,-0.37827 -0.0446,0.0611 -0.01,0.11031 0.0776,0.10945 0.21579,-0.002 0.52245,-0.17415 0.52245,-0.29306 0,-0.15083 0.61872,-0.52578 0.86784,-0.52592 0.25817,-1e-4 0.92361,-0.45021 0.809,-0.54715 -0.0969,-0.082 0.69419,-0.67951 0.90263,-0.68172 0.085,-7.7e-4 0.20642,-0.117 0.2698,-0.25801 0.0634,-0.14102 0.16692,-0.25639 0.23009,-0.25639 0.0632,0 0.17803,-0.16194 0.25526,-0.359882 0.0772,-0.19793 0.19059,-0.33365 0.2519,-0.3016 0.0613,0.032 0.11147,0.0184 0.11147,-0.0303 0,-0.0487 0.18768,-0.26188 0.41707,-0.4737 0.22938,-0.21182 0.52215,-0.57849 0.6506,-0.81482 0.70294,-1.29342 0.86379,-1.61325 1.04387,-2.07573 0.10871,-0.27916 0.24968,-0.59987 0.31327,-0.71268 0.0636,-0.11281 0.22044,-0.52814 0.34854,-0.92297 0.35407,-1.0913 0.46407,-1.28191 0.73977,-1.28191 0.31034,0 0.32782,0.41861 0.0564,1.35054 -0.9618,3.30256 -3.0165,6.186152 -5.57563,7.824902 -0.83555,0.53505 -1.03376,0.63994 -2.32209,1.22877 -0.44183,0.20193 -0.66834,0.38056 -0.75779,0.59761 -0.0742,0.17994 -0.12759,1.24346 -0.12759,2.53962 0,2.21865 0.0819,2.76171 0.57148,3.78995 0.0403,0.0846 0.062,0.19495 0.0483,0.24521 -0.0275,0.10066 0.19017,0.52558 0.72586,1.41708 0.19349,0.32201 0.35302,0.66812 0.3545,0.76914 0.001,0.10102 0.10939,0.29904 0.2398,0.44005 0.1304,0.14101 0.23831,0.29667 0.23979,0.34591 0.002,0.0734 0.74091,0.99672 1.27134,1.58913 0.0691,0.0772 0.57669,0.53564 1.12792,1.01874 0.6742,0.59089 1.04228,0.84451 1.12458,0.77489 0.0673,-0.0569 0.30385,-0.53843 0.52567,-1.07002 0.98515,-2.3609 2.27857,-4.6911 3.41448,-6.15147 0.36419,-0.46821 0.66217,-0.88357 0.66217,-0.92301 0,-0.0394 0.60709,-0.60944 1.34909,-1.26666 1.75444,-1.55395 2.79757,-2.26403 5.50129,-3.74483 2.19474,-1.20205 5.72391,-2.25772 7.57785,-2.26676 0.36676,-0.002 1.07605,-0.049 1.57619,-0.10498 1.57577,-0.1763 4.04871,0.10477 5.15294,0.58565 1.15213,0.50175 1.20522,1.87412 0.0791,2.04555 -0.24358,0.0371 -0.49744,0.10132 -0.56412,0.14275 -0.0667,0.0414 -0.33949,0.10261 -0.60623,0.13594 -1.01088,0.12631 -1.96876,0.27217 -2.7886,0.42461 -0.46678,0.0868 -0.97536,0.1578 -1.13019,0.1578 -0.15483,0 -0.3601,0.0665 -0.45616,0.14773 -0.0961,0.0813 -0.43317,0.18014 -0.74913,0.21974 -0.31596,0.0396 -0.87455,0.16028 -1.24132,0.26817 -0.36677,0.10789 -0.77597,0.22053 -0.90934,0.2503 -0.13337,0.0298 -0.35161,0.0941 -0.48498,0.14297 -0.13337,0.0489 -0.5153,0.16366 -0.84872,0.25512 -0.33343,0.0915 -1.06391,0.3476 -1.62329,0.56921 -0.55938,0.2216 -1.06469,0.40291 -1.1229,0.40291 -0.0582,0 -0.78829,0.27938 -1.62238,0.62085 -1.31149,0.5369 -2.7908,1.29932 -3.80155,1.95928 -0.34576,0.22575 -0.77844,0.24438 -0.97697,0.0421 -0.12078,-0.1231 -0.21107,-0.0839 -0.56045,0.24318 -0.50758,0.47521 -0.53612,0.82695 -0.0951,1.1728 0.46889,0.36775 1.02064,0.42348 1.69493,0.17119 0.3084,-0.11539 0.63591,-0.20979 0.72779,-0.20979 0.15486,0 0.56946,-0.15913 1.80267,-0.69186 2.92432,-1.26329 10.3352,-3.17275 15.26941,-3.93426 1.27064,-0.1961 1.48651,-0.25958 1.76753,-0.51983 0.36875,-0.34148 0.72554,-0.30383 0.72554,0.0766 0,0.47992 -0.97504,0.98064 -2.18332,1.1212 -0.36063,0.0419 -0.95808,0.15643 -1.32767,0.25439 -0.66141,0.17531 -1.65541,0.36424 -2.36942,0.45035 -1.03116,0.12435 -4.00539,0.85176 -6.85038,1.6754 -1.70778,0.49441 -1.88163,0.56641 -2.06408,0.85477 -0.0941,0.14869 0.004,0.20902 0.64316,0.39731 0.41474,0.1221 0.8442,0.26378 0.95436,0.31484 0.11015,0.0511 0.54664,0.16873 0.96996,0.26149 0.42333,0.0928 0.90609,0.22775 1.0728,0.3 0.16671,0.0722 0.49408,0.17959 0.72747,0.23854 0.83085,0.20988 5.41273,1.12908 6.42602,1.28916 4.75346,0.75097 11.05044,1.08936 15.45882,0.83073 1.40039,-0.0821 2.92842,-0.14949 3.39562,-0.14963 1.01818,-3e-4 2.97798,-0.1876 6.97088,-0.66622 4.61283,-0.55292 9.41217,-1.39324 11.24553,-1.969 0.48243,-0.1515 0.5153,-0.18671 0.5153,-0.55204 0,-0.21463 -0.0498,-0.41627 -0.1107,-0.4481 -0.0609,-0.0318 -0.14667,-0.23796 -0.19063,-0.45808 -0.044,-0.22011 -0.15611,-0.48523 -0.24919,-0.58914 -0.0931,-0.10391 -0.17098,-0.26586 -0.1731,-0.35989 -0.002,-0.094 -0.11406,-0.38842 -0.24875,-0.65419 -0.43185,-0.85214 -0.48515,-1.875 -0.1681,-3.22567 0.15863,-0.67574 0.22825,-1.19395 0.16305,-1.21354 -0.0626,-0.0188 -0.11379,-0.11909 -0.11379,-0.22287 0,-0.10378 -0.12873,-0.31914 -0.28606,-0.47858 -0.75914,-0.76931 -0.82339,-1.19832 -0.42634,-2.84639 0.28034,-1.163592 0.24379,-2.090472 -0.0917,-2.325982 -0.10417,-0.0731 -0.53987,-0.13124 -1.015,-0.13537 -0.74246,-0.006 -0.87114,-0.0386 -1.19011,-0.29708 -0.22501,-0.18235 -0.38573,-0.43843 -0.43339,-0.69051 -0.11179,-0.59134 -0.40501,-0.60857 -1.86783,-0.10972 -1.19751,0.40837 -1.91802,0.54279 -3.03189,0.56564 l -0.56924,0.0117 -0.19587,0.51276 c -0.10773,0.28202 -0.35419,0.74351 -0.5477,1.02553 -0.2901,0.42281 -0.48972,0.5707 -1.13783,0.84303 -1.30005,0.546262 -2.18942,0.512762 -2.98664,-0.1125 -0.54013,-0.42362 -0.78761,-1.11048 -0.85751,-2.37991 -0.084,-1.5255 0.20633,-2.41343 1.17388,-3.59019 0.57076,-0.69417 1.21892,-1.15736 1.71866,-1.22819 0.22445,-0.0318 0.52525,-0.0776 0.66844,-0.10168 0.28455,-0.0479 0.77485,-0.66835 0.82167,-1.03977 0.0162,-0.12839 0.11345,-0.31479 0.21613,-0.41422 0.27221,-0.26356 0.36892,-0.8843 0.21372,-1.37178 -0.0744,-0.23369 -0.15641,-0.70739 -0.18226,-1.05268 -0.11474,-1.53282 -0.47317,-2.83268 -0.78108,-2.83268 -0.11117,0 -0.32643,-0.19449 -0.48239,-0.43585 -0.15491,-0.23972 -0.45865,-0.59737 -0.67499,-0.79478 -0.63697,-0.58124 -0.69738,-0.89912 -0.71179,-3.7457 l -0.0131,-2.57733 -0.34615,-0.38382 c -0.19038,-0.2111 -0.69824,-0.6831 -1.12858,-1.04889 -1.06297,-0.90352 -1.49615,-1.69209 -1.49482,-2.72123 4.6e-4,-0.41391 0.0819,-1.30119 0.18076,-1.97173 0.17098,-1.15945 0.16793,-1.25994 -0.0623,-2.05106 -0.34071,-1.17052 -0.47346,-1.40238 -0.88716,-1.54951 -0.33289,-0.11839 -0.38682,-0.1069 -0.65946,0.14052 -0.16332,0.1482 -0.45542,0.55229 -0.64913,0.89797 -0.38333,0.68409 -0.84413,1.13455 -1.3185,1.2889 -0.16672,0.0542 -0.76688,0.13928 -1.33371,0.18896 -1.24181,0.10884 -1.39473,0.2249 -1.51312,1.14842 -0.11102,0.86607 -0.26571,1.37669 -0.57782,1.90728 -0.34523,0.5869 -0.69049,0.80075 -1.52348,0.94361 -1.14497,0.19637 -1.62671,0.42389 -1.93257,0.91275 -0.33868,0.54131 -0.35776,1.14024 -0.044,1.38042 0.35791,0.27396 0.83516,1.27345 0.98346,2.05963 0.0897,0.47575 0.10737,1.49085 0.0525,3.02531 -0.0586,1.63978 -0.0415,2.43608 0.0589,2.74652 0.17463,0.53985 0.7367,1.09585 1.39282,1.37777 0.27305,0.11732 0.61656,0.32222 0.76334,0.45532 0.38374,0.34798 1.0062,1.13097 1.0062,1.26571 0,0.0632 0.0856,0.25484 0.19024,0.42598 0.26548,0.43422 0.39139,1.19795 0.53032,3.21671 0.18536,2.69353 0.46213,3.26618 1.8617,3.85196 1.66083,0.69514 2.10484,1.44177 2.22051,3.73391 0.0369,0.731582 0.11717,1.409242 0.17834,1.505912 0.0612,0.0967 0.1112,0.29335 0.1112,0.43708 0,0.16856 0.18292,0.42088 0.5153,0.71082 0.46006,0.40132 0.60627,0.4629 1.36401,0.57449 2.428,0.35754 2.99756,0.8727 3.57721,3.23554 0.28106,1.14568 0.48019,1.54934 0.97355,1.97347 0.69003,0.5932 1.59617,0.6746 2.5742,0.23122 0.52465,-0.23784 0.68867,-0.24983 1.12376,-0.0821 0.34728,0.13383 0.71329,0.66391 0.97695,1.41486 0.24955,0.71076 0.52498,0.87429 1.45346,0.86294 0.64304,-0.008 0.85521,-0.0589 1.27964,-0.30765 0.74838,-0.43868 1.56572,-0.42289 2.26219,0.0437 0.53261,0.35681 0.64235,0.59594 0.32128,0.70015 -0.11372,0.0369 -0.32583,-0.0494 -0.53207,-0.21654 -0.51226,-0.41511 -1.21533,-0.46463 -1.7953,-0.12643 -0.62843,0.36645 -1.48388,0.51542 -2.1296,0.37085 -0.72343,-0.16196 -1.12511,-0.53274 -1.42682,-1.31709 -0.14298,-0.3717 -0.36264,-0.76674 -0.48815,-0.87786 -0.20469,-0.18123 -0.26878,-0.18826 -0.62249,-0.0683 -1.34805,0.45735 -1.97184,0.46863 -2.82833,0.0512 -0.87933,-0.42861 -1.40097,-1.24673 -1.75656,-2.7549 -0.22658,-0.96097 -0.59342,-1.75207 -0.94431,-2.03642 -0.31607,-0.25612 -1.45982,-0.57642 -2.07439,-0.58092 -0.80131,-0.006 -1.98784,-0.79631 -2.37496,-1.58217 -0.13459,-0.27321 -0.23292,-0.92422 -0.30208,-1.999782 -0.14819,-2.30497 -0.3784,-2.754 -1.74152,-3.39698 -1.10638,-0.52187 -1.4428,-0.76857 -1.747,-1.28111 -0.35466,-0.59755 -0.62903,-1.958 -0.62903,-3.11895 0,-1.84043 -0.58017,-3.74996 -1.32197,-4.35108 -0.1868,-0.15138 -0.6887,-0.46926 -1.11534,-0.70641 -0.66535,-0.36984 -0.83608,-0.53188 -1.20006,-1.13902 l -0.42437,-0.70784 0.0527,-1.24066 c 0.10332,-2.43167 0.0677,-4.51441 -0.0846,-4.94271 -0.20125,-0.56606 -0.613,-1.06256 -1.12283,-1.35395 -0.51867,-0.29646 -0.99759,-0.27439 -2.72513,0.12558 -2.05668,0.47616 -3.56824,0.38144 -5.27419,-0.33049 -0.83911,-0.35019 -0.98893,-0.37903 -1.93993,-0.37348 -0.97826,0.006 -1.08698,0.0301 -2.14132,0.48045 -2.32629,0.99361 -3.54856,1.05687 -5.54648,0.28703 -0.31901,-0.12292 -0.8067,-0.25622 -1.08375,-0.29622 -0.58466,-0.0844 -0.67472,-0.31892 -0.17912,-0.46635 0.26461,-0.0787 0.53358,-0.0223 1.45495,0.30519 1.03177,0.36672 1.22547,0.40176 2.22153,0.40176 1.11183,0 1.24836,-0.0294 2.69184,-0.57866 1.50192,-0.57155 1.67398,-0.61257 2.64297,-0.63012 0.88859,-0.0161 1.04667,0.0137 1.88423,0.35513 0.50284,0.20497 1.15261,0.42697 1.44394,0.49332 0.761,0.17333 2.49177,0.14659 3.27972,-0.0507 1.01394,-0.25383 2.56648,-0.47296 2.94021,-0.41499 0.27329,0.0424 0.33342,0.0146 0.33342,-0.15412 0,-0.32174 0.34429,-0.93937 0.7036,-1.2622 0.40706,-0.36573 1.1691,-0.65223 1.97547,-0.74271 0.38457,-0.0431 0.70402,-0.14824 0.84801,-0.27896 0.34823,-0.31616 0.68105,-1.16332 0.77263,-1.96668 0.045,-0.39457 0.13372,-0.83277 0.1972,-0.97378 0.2003,-0.44492 0.85224,-0.73037 1.89377,-0.82916 1.46718,-0.13917 1.53219,-0.17894 2.21991,-1.35818 0.36618,-0.62788 0.55324,-1.05754 0.47765,-1.09706 -0.0684,-0.0357 -0.0903,-0.13982 -0.0488,-0.23132 0.12872,-0.28371 -0.0449,-0.37901 -0.40274,-0.2211 -0.18225,0.0804 -0.45585,0.14649 -0.60798,0.14684 -0.15214,3.1e-4 -0.30801,0.0699 -0.3464,0.15446 -0.0384,0.0846 -0.16889,0.15383 -0.29,0.15383 -0.12112,0 -0.38233,0.11537 -0.58045,0.25638 -0.19813,0.14101 -0.44461,0.25638 -0.54775,0.25638 -0.10314,0 -0.22125,0.0461 -0.26246,0.10256 -0.0412,0.0564 -0.29354,0.10255 -0.56073,0.10255 -0.26719,0 -0.59563,0.0497 -0.72987,0.11048 -0.33107,0.14987 -1.31322,0.22318 -1.48239,0.11066 -0.0753,-0.0501 -0.27331,-0.11657 -0.44002,-0.14776 -0.16671,-0.0312 -0.66647,-0.17354 -1.11059,-0.31637 -1.03351,-0.33237 -2.82196,-0.54812 -3.07443,-0.37089 -0.0972,0.0682 -0.25769,0.0978 -0.35664,0.0657 -0.0989,-0.0321 -0.25673,0.007 -0.35063,0.086 -0.0939,0.0794 -0.31424,0.17487 -0.48964,0.21211 -0.1754,0.0372 -0.34889,0.10873 -0.38554,0.15889 -0.0367,0.0502 -0.19056,0.0912 -0.34204,0.0912 -0.15148,0 -0.519,0.10431 -0.81673,0.2318 -0.43287,0.18536 -0.78652,0.23829 -1.76542,0.26422 -0.67326,0.0178 -1.32552,-0.0119 -1.44947,-0.066 -0.81846,-0.35744 -1.56743,-0.53256 -2.27766,-0.53256 -0.37608,0 -0.73222,-0.0654 -0.90127,-0.16559 -0.25548,-0.15135 -0.3177,-0.15168 -0.72414,-0.004 -0.24456,0.0889 -0.69017,0.21412 -0.99026,0.27816 -0.30008,0.064 -0.60064,0.15447 -0.6679,0.20098 -0.2091,0.14454 -1.77134,0.42952 -2.7876,0.5085 -0.99716,0.0775 -2.17346,-0.0464 -3.57674,-0.37665 -1.28522,-0.30248 -1.33371,-0.30049 -1.33371,0.0547 0,0.17296 0.0634,0.43221 0.14095,0.57611 0.0775,0.1439 0.10183,0.29472 0.054,0.33515 -0.17344,0.14671 -0.31254,-0.24245 -0.31436,-0.87948 l -0.002,-0.65129 0.5153,0.0517 c 0.28341,0.0284 0.95177,0.14809 1.48526,0.26591 1.77363,0.39168 4.22808,0.24578 5.45605,-0.32432 1.50977,-0.70093 2.47404,-0.84422 3.59599,-0.53436 0.35618,0.0984 0.75673,0.22894 0.8901,0.29015 0.35194,0.16151 2.10089,0.46693 2.6674,0.46581 0.46207,-7.8e-4 1.92573,-0.28008 2.18243,-0.41625 0.38268,-0.20301 2.44685,-0.80352 2.76198,-0.80352 0.33859,0 1.6494,0.2301 3.88125,0.68133 0.52762,0.10668 1.09839,0.14782 1.58877,0.11452 0.74845,-0.0508 0.90777,-0.10358 2.86197,-0.94779 0.87813,-0.37935 2.10381,-0.4121 2.86585,-0.0766 0.69927,0.30788 1.84302,1.4144 1.93227,1.86936 0.0387,0.19741 0.12076,0.49273 0.1823,0.65626 0.16192,0.43026 0.13752,1.31018 -0.0611,2.20498 -0.45244,2.03781 -0.47607,2.30823 -0.25295,2.8949 0.16315,0.42895 0.38774,0.69927 1.01492,1.22157 0.44297,0.36889 0.91452,0.78391 1.04789,0.92226 0.13337,0.13835 0.39922,0.41338 0.59079,0.61119 l 0.34829,0.35965 -0.104,1.38446 c -0.0572,0.76145 -0.10481,1.93824 -0.1058,2.61509 -0.002,1.16964 0.0158,1.25744 0.35239,1.77136 0.1948,0.2974 0.77508,0.90203 1.2895,1.34362 0.51442,0.44159 1.00571,0.91357 1.09176,1.04884 0.0952,0.14972 0.17799,0.77706 0.21151,1.6034 0.0573,1.41126 0.1756,1.75851 0.5571,1.63468 0.11268,-0.0365 0.2811,-0.21713 0.37426,-0.40123 0.20091,-0.39704 1.46309,-1.69858 2.58712,-2.66782 l 0.80279,-0.69223 1.27633,7.8e-4 c 1.15069,7.7e-4 2.1361,0.136 3.34896,0.45975 0.20968,0.056 0.57451,-0.20169 2.09311,-1.47829 1.01153,-0.85037 1.8917,-1.5461 1.95593,-1.5461 0.0642,0 0.43178,-0.25817 0.81679,-0.5737 0.81973,-0.67182 2.33016,-1.53926 2.95669,-1.69803 0.57587,-0.14593 1.05954,0.0421 1.35948,0.52845 0.18822,0.30521 0.2113,0.51969 0.15444,1.43562 -0.073,1.17593 -0.45791,4.27228 -0.73305,5.89678 -0.25527,1.50721 -0.2912,1.85891 -0.20232,1.98055 0.10207,0.13969 0.96061,0.63454 1.1009,0.63454 0.16794,0 0.45286,-0.89166 0.60624,-1.89722 0.0774,-0.50764 0.2188,-1.02465 0.31414,-1.14893 0.21017,-0.27393 0.88452,-0.39925 1.37314,-0.25518 0.30755,0.0907 0.39232,0.0715 0.63041,-0.14289 0.22529,-0.20284 0.39417,-0.24767 0.93293,-0.24767 0.59115,0 0.7012,0.0367 1.08558,0.3618 0.379,0.32056 0.42056,0.40714 0.36465,0.75966 -0.0663,0.41794 0.0646,0.62193 0.39893,0.62193 0.33041,0 0.70839,0.43863 0.86153,0.99974 0.29017,1.06327 -0.33803,3.45623 -1.21174,4.61583 -0.20153,0.26748 -0.52807,0.71706 -0.72564,0.99908 -0.19758,0.28202 -0.58264,0.71276 -0.8557,0.95721 -0.27306,0.24445 -0.49648,0.50526 -0.49648,0.57958 0,0.0743 0.2524,0.65885 0.56089,1.29894 1.3434,2.787542 1.98527,4.504132 1.98527,5.309312 0,0.60424 -0.13742,0.82832 -0.50796,0.82832 -0.27852,0 -1.76386,0.49777 -2.15944,0.72367 -0.16672,0.0952 -0.56978,0.3059 -0.89569,0.46821 -1.12781,0.56169 -1.29239,0.65307 -1.86823,1.03728 -0.31813,0.21225 -0.91865,0.56887 -1.33449,0.79248 -0.61419,0.33026 -0.77863,0.47743 -0.87631,0.78424 -0.11944,0.37521 -0.3006,0.50132 -0.72009,0.50132 -0.34284,0 -4.79874,1.91406 -5.2691,2.26337 -0.23971,0.17802 -0.72451,0.38358 -1.12445,0.47679 -0.38668,0.0901 -0.79441,0.22974 -0.90605,0.31027 -0.12068,0.0871 -0.2606,0.44431 -0.34506,0.88108 -0.28284,1.46264 -0.95733,3.45615 -1.43342,4.23655 -0.297,0.48684 -1.04791,1.11055 -1.53465,1.27468 -0.20006,0.0675 -1.20751,0.15097 -2.23879,0.18557 -1.84777,0.062 -1.8772,0.0666 -2.02171,0.31931 -0.15986,0.2795 -0.89682,2.82215 -0.89411,3.08488 0.002,0.16627 0.14596,0.24414 1.09288,0.58997 0.68958,0.25185 3.78992,1.0428 4.08385,1.04187 0.1212,-3.9e-4 0.35388,-0.16649 0.51706,-0.36913 0.16317,-0.20263 0.46326,-0.47183 0.66685,-0.59822 1.04528,-0.64892 1.72216,-0.56933 2.80712,0.33009 0.39349,0.32619 0.97244,0.76876 1.28657,0.98349 0.31412,0.21473 0.6067,0.49019 0.65016,0.61213 0.0435,0.12193 0.20582,0.33706 0.3608,0.47808 0.4289,0.39024 0.53871,0.72712 0.40323,1.23711 -0.30573,1.15091 -1.88043,2.99944 -2.50781,2.94389 -0.29008,-0.0257 -0.32828,0.0228 -0.54383,0.69025 -0.12751,0.39483 -0.28443,0.83875 -0.3487,0.9865 -0.13939,0.32041 -1.5302,1.15202 -2.38744,1.42752 -1.17188,0.37664 -4.13178,0.62912 -5.16973,0.44099 z m 5.46798,-6.7102 c 0.52556,-0.41762 0.34033,-1.46748 -0.28044,-1.58945 -0.43532,-0.0855 -2.44648,-0.63726 -2.76262,-0.75788 -0.13337,-0.0509 -0.40617,-0.1181 -0.60623,-0.14936 -0.31673,-0.0495 -0.40462,-0.007 -0.68007,0.32733 -0.30078,0.36527 -0.66525,1.12744 -0.57478,1.20197 0.12103,0.0997 1.6187,0.61296 2.46731,0.84557 0.53347,0.14624 1.02452,0.3086 1.09121,0.36081 0.20016,0.15673 1.03399,0.009 1.34562,-0.23899 z m -5.29189,-1.52155 c 0.24826,-0.16138 0.29828,-0.28371 0.30311,-0.74123 0.005,-0.4697 -0.0268,-0.54795 -0.22221,-0.54795 -0.22366,0 -0.7978,0.73565 -0.98046,1.25627 -0.0706,0.20118 -0.0372,0.23045 0.26063,0.22846 0.18788,-0.001 0.4754,-0.0892 0.63893,-0.19555 z m -1.3812,-0.48515 c 0.16439,-0.15003 0.34257,-0.41538 0.39597,-0.58967 0.10801,-0.35257 0.0443,-0.80335 -0.10695,-0.75705 -0.0538,0.0165 -0.34999,0.34872 -0.65823,0.73836 -0.42524,0.53753 -0.52231,0.72888 -0.40239,0.79321 0.26912,0.14438 0.46131,0.0983 0.7716,-0.18485 z m -27.19082,-0.012 c 0.40818,-0.38148 -0.10245,-0.7972 -2.0435,-1.66369 l -1.0338,-0.46149 -0.48858,0.43967 c -0.26872,0.24182 -0.46772,0.49262 -0.44223,0.55732 0.0255,0.0647 0.39766,0.27925 0.82701,0.47678 1.77382,0.81603 2.78371,1.02283 3.1811,0.65141 z m 25.95701,-0.6258 c 0.18396,-0.16241 0.31847,-0.35854 0.2989,-0.43585 -0.035,-0.13832 0.0518,-0.46174 0.50544,-1.88395 0.12595,-0.39483 0.28449,-0.98437 0.35231,-1.31009 0.0678,-0.32572 0.28565,-0.88887 0.48405,-1.25142 0.1984,-0.36256 0.39715,-0.82341 0.44166,-1.02412 0.0445,-0.2007 0.12932,-0.3902 0.18844,-0.42111 0.0591,-0.0309 0.1075,-0.18632 0.1075,-0.34536 0,-0.30686 -0.3416,-0.49197 -0.96996,-0.52563 -0.74074,-0.0397 -0.86062,0.072 -1.3285,1.23711 -0.14723,0.36662 -0.34503,0.81201 -0.43956,0.98975 -0.0945,0.17773 -0.17221,0.3854 -0.17262,0.46148 -3.6e-4,0.0761 -0.0755,0.25949 -0.16683,0.40756 -0.32994,0.53484 -0.92906,2.21558 -1.02062,2.86318 -0.10727,0.75877 0.007,1.04278 0.5394,1.33962 0.4818,0.26868 0.79154,0.24213 1.18039,-0.10117 z m -30.18693,-1.14832 c 0.58845,-0.5915 0.21889,-1.16049 -0.4363,-0.67175 -0.60043,0.4479 -0.7514,0.66235 -0.5854,0.83153 0.24694,0.25167 0.67972,0.18399 1.0217,-0.15978 z m -1.69632,-0.36781 c 0.46654,-0.18818 0.86686,-0.73599 0.66222,-0.90622 -0.0826,-0.0687 -0.1785,-0.0393 -0.29042,0.0889 -0.0919,0.10531 -0.33377,0.34636 -0.53744,0.53567 -0.53893,0.50093 -0.50809,0.55338 0.16564,0.28164 z m -1.0461,-0.60887 c 0.42156,-0.23345 0.49863,-0.33854 0.6185,-0.84337 0.10852,-0.45707 0.24247,-0.66766 0.64576,-1.01523 0.27986,-0.24119 0.56981,-0.43853 0.64433,-0.43853 0.0745,0 0.26302,-0.11482 0.41889,-0.25516 0.15587,-0.14034 0.73266,-0.51062 1.28174,-0.82284 0.54909,-0.31223 1.06899,-0.63968 1.15534,-0.72769 0.23573,-0.24024 -10e-4,-0.47317 -0.65683,-0.64535 -0.51625,-0.13561 -0.60149,-0.1316 -1.04779,0.0493 -0.26721,0.10829 -0.48645,0.2315 -0.48722,0.2738 -9.1e-4,0.0423 -0.0564,0.0769 -0.12368,0.0769 -0.0673,0 -0.27187,0.1121 -0.45468,0.24911 -0.35201,0.26383 -0.63787,0.46256 -1.26431,0.87898 -0.44378,0.29499 -1.29879,0.95827 -2.16518,1.67966 -0.82955,0.69071 -0.80588,1.02132 0.10821,1.51165 0.30297,0.16251 0.61711,0.29548 0.6981,0.29548 0.081,0 0.36396,-0.12001 0.62882,-0.26669 z m 47.86673,-11.99732 c 1.53244,-0.62145 1.89821,-0.81148 2.00068,-1.03944 0.087,-0.19359 0.0861,-0.35196 -0.003,-0.51745 -0.0707,-0.13116 -0.12846,-0.34994 -0.12846,-0.48618 0,-0.13624 -0.10705,-0.49172 -0.2379,-0.78996 -0.13084,-0.29824 -0.43025,-1.17979 -0.66536,-1.95901 -0.2351,-0.77923 -0.55785,-1.7945 -0.71721,-2.25616 -0.42457,-1.22996 -0.77999,-2.680232 -0.87309,-3.562582 -0.0449,-0.42608 -0.15489,-0.85931 -0.24429,-0.96272 -0.14473,-0.16741 -0.20626,-0.17342 -0.56134,-0.0548 -0.75619,0.25264 -1.86062,0.81054 -2.20308,1.11288 -0.27776,0.24523 -0.36148,0.43704 -0.43821,1.003992 -0.0522,0.38547 -0.16236,0.92141 -0.24486,1.19098 -0.21073,0.68854 -0.0892,1.1272 0.47967,1.73153 0.66036,0.70151 0.81124,1.14924 0.62326,1.84949 -0.40294,1.50105 -0.41928,1.63606 -0.28994,2.39544 0.0756,0.44404 0.28453,1.02832 0.50741,1.4192 0.20837,0.36544 0.37916,0.74809 0.37953,0.85035 3.6e-4,0.10227 0.0582,0.36121 0.12856,0.57545 0.15553,0.47375 0.0133,0.50239 2.48769,-0.50103 z m -56.80538,-0.73455 c 0.53403,-0.31945 0.57321,-0.46371 0.2415,-0.88931 -0.18026,-0.23129 -0.34376,-0.30832 -0.7169,-0.33773 -0.40437,-0.0319 -0.53515,0.009 -0.8002,0.24835 -0.34188,0.30911 -0.33851,0.56048 0.0136,1.01501 0.25316,0.32681 0.67528,0.31465 1.26201,-0.0363 z m 61.02587,-9.665582 c 0.14869,0 0.38747,-0.0923 0.53063,-0.2051 0.14315,-0.11281 0.3995,-0.20511 0.56965,-0.20511 0.17015,0 0.4028,-0.0923 0.517,-0.20511 0.11419,-0.1128 0.27086,-0.2051 0.34814,-0.2051 0.0773,0 0.5788,-0.39067 1.11448,-0.86816 1.03437,-0.922 2.25999,-2.39621 2.40033,-2.88717 0.0464,-0.16252 0.26328,-0.59871 0.48184,-0.96929 0.45952,-0.77918 0.66519,-1.4812 0.74392,-2.53927 0.0621,-0.8345 -0.11274,-1.14543 -0.64404,-1.14543 -0.54921,0 -0.83895,0.4098 -1.1342,1.60417 -0.463,1.873 -1.36762,3.37322 -1.98883,3.29828 -0.36448,-0.044 -0.38803,-0.40523 -0.0496,-0.76056 0.53772,-0.56455 0.87472,-1.35074 1.13072,-2.63787 0.20388,-1.02508 0.39328,-1.39933 0.83085,-1.64184 0.32913,-0.1824 0.51523,-0.72072 0.37675,-1.08977 -0.0911,-0.24269 -0.56618,-0.43986 -0.84322,-0.34994 -0.22206,0.0721 -0.7039,0.73939 -0.7318,1.01349 -0.0556,0.54674 -0.48328,1.99963 -0.72414,2.46029 -0.14874,0.28448 -0.52458,0.78115 -0.83521,1.10372 -0.31062,0.32256 -0.56477,0.67943 -0.56477,0.79303 0,0.11361 -0.0786,0.20655 -0.17471,0.20655 -0.24063,0 -0.37416,-0.21087 -0.19338,-0.30538 0.11602,-0.0607 0.11505,-0.1219 -0.005,-0.28387 -0.13314,-0.18032 -0.0884,-0.29235 0.35256,-0.88292 0.27778,-0.37203 0.50506,-0.74838 0.50506,-0.83635 0,-0.088 0.0759,-0.26216 0.16872,-0.38709 0.0928,-0.12493 0.20663,-0.45404 0.25295,-0.73138 0.0463,-0.27733 0.16595,-0.60973 0.26583,-0.73866 0.0999,-0.12893 0.19065,-0.45581 0.20171,-0.72639 0.0178,-0.43416 -0.011,-0.49572 -0.24501,-0.52389 -0.39923,-0.0481 -0.62514,0.3338 -1.03459,1.74888 -0.3531,1.22031 -0.83253,2.23132 -1.0581,2.23132 -0.0609,0 -0.23728,0.2192 -0.39201,0.48712 -0.15472,0.26792 -0.36955,0.57002 -0.47741,0.67134 -0.32354,0.30391 -0.57731,0.8132 -0.65085,1.30614 -0.0724,0.48521 -0.45302,1.12474 -0.66943,1.12474 -0.33458,0 -0.38642,-0.48708 -0.17589,-1.65254 0.11602,-0.64221 0.22517,-1.28303 0.24255,-1.42404 0.0933,-0.75642 0.1857,-1.27874 0.34694,-1.96061 0.35277,-1.49184 0.92021,-6.05372 0.95574,-7.68353 0.0286,-1.31413 -0.10562,-1.65479 -0.70216,-1.78142 -0.42242,-0.0897 -1.77397,0.74171 -3.51843,2.16433 -0.40165,0.32754 -0.94725,0.73301 -1.21246,0.90103 -0.61552,0.38999 -1.86147,1.46771 -1.77821,1.53813 0.0348,0.0295 -0.006,0.0536 -0.0911,0.0536 -0.0849,0 -0.12703,0.0604 -0.0936,0.13419 0.12464,0.27474 1.00077,1.19878 1.13672,1.19889 0.0776,6e-5 0.30974,-0.19389 0.5159,-0.431 0.20616,-0.23711 1.01077,-0.97773 1.78803,-1.64582 1.44289,-1.24023 1.72836,-1.37849 2.02361,-0.98002 0.0982,0.13252 0.0754,0.22312 -0.0965,0.38383 -0.29022,0.27124 -0.5289,1.32474 -0.97738,4.31396 -0.37415,2.49377 -0.44285,3.25557 -0.50663,5.61736 -0.0616,2.28082 -0.0528,2.41078 0.19807,2.92276 0.21869,0.44633 0.38632,0.6041 1.00388,0.94484 0.69914,0.38575 1.64968,0.60806 2.13375,0.49902 0.0888,-0.02 0.28312,-0.0363 0.4318,-0.0363 z m -1.13812,-1.07603 c -0.20538,-0.20931 -0.0587,-1.14093 0.26038,-1.65376 0.68727,-1.10459 2.28502,-1.90406 2.28502,-1.14336 0,0.16137 -0.14298,0.31015 -0.45467,0.47315 -0.66616,0.34835 -1.12751,0.94819 -1.23248,1.60246 -0.12604,0.78561 -0.49281,1.09395 -0.85825,0.72151 z m -6.37232,-0.0191 c 0.58582,-0.36338 0.59312,-0.37439 0.30745,-0.46377 -0.16094,-0.0504 -0.51281,-0.0779 -0.78193,-0.0611 -0.45912,0.0286 -0.48772,0.049 -0.46345,0.33129 0.0318,0.36989 0.11813,0.57169 0.24313,0.56833 0.0521,-0.002 0.36476,-0.17004 0.6948,-0.37475 z m -8.16961,-1.5283 c 1.32004,-0.32514 4.42024,-1.93012 6.72083,-3.4794 2.13377,-1.43693 2.57101,-1.98698 2.43811,-3.06715 -0.17876,-1.45289 -0.91896,-2.64149 -2.02683,-3.2546 -0.83233,-0.46063 -2.98084,-0.79376 -4.25253,-0.65938 -0.5659,0.0598 -0.74618,0.13836 -1.26657,0.55189 -0.96015,0.76298 -2.42177,2.51012 -3.21188,3.8393 -1.49282,2.51131 -1.86062,5.55699 -0.73359,6.07468 0.43034,0.19768 1.51831,0.19518 2.33246,-0.005 z m -61.77548,-1.3808 c 1.46347,-0.31903 3.36271,-1.1348 4.04261,-1.73639 1.10873,-0.98105 1.62175,-1.69061 1.99856,-2.7642 0.53066,-1.51194 -0.0753,-3.14265 -1.68381,-4.53097 -1.09662,-0.94654 -2.39716,-1.39754 -4.54671,-1.57672 -1.40154,-0.11682 -3.7959,0.30918 -4.74492,0.84421 -1.39108,0.78426 -2.49045,1.73421 -3.04833,2.63403 -0.37036,0.59735 -0.81554,1.7738 -0.81312,2.14873 0.004,0.58868 0.43225,1.77747 0.8514,2.36245 0.7259,1.01307 2.1516,2.05396 3.44868,2.51785 0.76762,0.27453 0.9819,0.30459 2.19197,0.30755 0.96721,0.002 1.60956,-0.0552 2.30367,-0.20654 z m -5.28166,-2.81925 c -0.70031,-0.18392 -1.36705,-0.65367 -1.7885,-1.26006 -0.27818,-0.40027 -0.33317,-0.5983 -0.33248,-1.19745 4.6e-4,-0.59443 0.0595,-0.80766 0.34227,-1.24008 1.1166,-1.70767 4.1596,-1.97816 5.75764,-0.51178 0.67272,0.6173 0.94584,1.35806 0.75987,2.06095 -0.27713,1.04739 -1.24576,1.92567 -2.43095,2.20416 -0.59672,0.14022 -1.65947,0.11455 -2.30785,-0.0557 z m 2.08507,-0.84748 c 1.01394,-0.22386 1.76467,-1.45727 1.42844,-2.34685 -0.34265,-0.90654 -1.38767,-1.33386 -2.87697,-1.17642 -0.0834,0.009 -0.15156,0.11041 -0.15156,0.22577 0,0.18443 0.0516,0.20157 0.42713,0.14198 0.3832,-0.0608 0.47088,-0.0286 0.85228,0.3135 0.45457,0.40767 0.78177,0.96288 0.78177,1.32654 0,0.22845 -0.5902,1.08481 -0.74764,1.08481 -0.21723,0 -0.94154,0.4411 -0.87464,0.53266 0.0753,0.10308 0.33619,0.0802 1.16119,-0.10199 z m 76.16389,2.21006 c 0.0402,-0.23972 0.12876,-1.03578 0.19685,-1.76903 0.14064,-1.51463 0.24306,-2.29618 0.60316,-4.60269 0.13985,-0.89577 0.22017,-1.65722 0.17848,-1.69212 -0.0417,-0.0349 -0.19366,0.0569 -0.33772,0.2041 -0.14407,0.14716 -0.74899,0.74209 -1.34426,1.32207 l -1.08233,1.05451 0.16279,0.57515 c 0.0895,0.31634 0.18537,0.91064 0.21296,1.32068 0.0412,0.61139 0.003,0.82747 -0.21049,1.20095 -0.27337,0.47764 -1.2192,1.26427 -2.5023,2.08111 -0.41879,0.26661 -0.76391,0.54242 -0.76696,0.61293 -0.004,0.0984 0.55457,0.12819 2.40561,0.12819 h 2.41115 z m 4.15712,-1.53829 c -0.0336,-0.0705 -0.0611,-0.0128 -0.0611,0.12819 0,0.14101 0.0275,0.1987 0.0611,0.12819 0.0336,-0.0705 0.0336,-0.18588 0,-0.25638 z m -84.43159,-5.92242 c 0.74449,-0.66451 0.73724,-0.63805 0.3409,-1.24514 -0.47965,-0.73471 -0.64658,-0.81352 -1.04809,-0.49482 -0.84632,0.67177 -1.18379,2.02795 -0.63054,2.53399 l 0.25144,0.22998 0.34208,-0.33253 c 0.18814,-0.1829 0.52303,-0.49406 0.74421,-0.69148 z m 24.94093,-6.50371 c 0,-0.0236 0.0334,-0.11637 0.0741,-0.2062 0.0541,-0.11925 0.0132,-0.15333 -0.15155,-0.12634 -0.67966,0.11134 -0.88103,0.37543 -0.28627,0.37543 0.20005,0 0.36373,-0.0193 0.36373,-0.0429 z m -4.51022,-0.26577 c 0.48686,-0.0535 1.00369,-0.16743 1.1485,-0.25322 0.14481,-0.0858 0.48822,-0.15599 0.76313,-0.15599 0.34099,0 0.5676,-0.0633 0.71306,-0.19929 0.11728,-0.10961 0.37126,-0.22865 0.5644,-0.26453 0.19314,-0.0359 0.35117,-0.10772 0.35117,-0.15964 0,-0.0519 0.0876,-0.0944 0.19474,-0.0944 0.2461,0 2.77711,-2.1542 3.25413,-2.76966 0.19641,-0.25342 0.5088,-0.60023 0.6942,-0.77071 0.52833,-0.4858 1.02489,-1.88245 0.72502,-2.03921 -0.0991,-0.0518 -0.6245,0.38484 -0.6245,0.51907 0,0.15477 -0.8824,0.95826 -1.21388,1.10532 -0.19927,0.0884 -0.53963,0.23788 -0.75636,0.33217 -0.21672,0.0943 -0.42133,0.19812 -0.45467,0.23074 -0.0767,0.075 -0.24979,0.10538 -0.9519,0.16684 -0.31002,0.0271 -0.76206,0.0762 -1.00454,0.10896 -0.24247,0.0328 -0.54255,0.0163 -0.66685,-0.0367 -0.39184,-0.16699 -0.81448,0.005 -1.08218,0.43962 -0.15328,0.24903 -0.35064,0.41858 -0.51021,0.43833 -0.14313,0.0177 -0.37609,0.19077 -0.5177,0.38457 -0.1785,0.24429 -0.34741,0.35237 -0.55069,0.35237 -0.16128,0 -0.29323,0.0367 -0.29323,0.0815 0,0.0448 -0.24552,0.16717 -0.5456,0.27184 -0.30009,0.10467 -0.54561,0.2295 -0.54561,0.27741 0,0.0479 -0.1364,0.0871 -0.30311,0.0871 -0.18861,0 -0.30312,0.0581 -0.30312,0.15382 0,0.0846 -0.0546,0.15383 -0.12124,0.15383 -0.0667,0 -0.12125,-0.043 -0.12125,-0.0954 0,-0.0525 -0.28644,-0.0776 -0.63654,-0.0557 -0.71631,0.0448 -1.06221,0.29043 -1.05904,0.75217 0.003,0.36783 0.16072,0.55139 0.44063,0.51128 0.12837,-0.0184 0.38876,0.0699 0.57866,0.19626 0.22233,0.14793 0.51211,0.22971 0.81389,0.22971 0.25775,0 0.46863,0.0461 0.46863,0.10256 0,0.12588 0.39916,0.12562 1.55206,-10e-4 z m -2.52024,-1.02359 c -0.24139,-0.12619 0.0641,-0.48354 0.45481,-0.53205 0.29766,-0.0369 0.34139,-0.01 0.33679,0.21132 -0.004,0.1856 -0.091,0.27319 -0.3244,0.32596 -0.17552,0.0397 -0.38575,0.0373 -0.4672,-0.005 z m 5.77676,-1.00835 c -0.17197,-0.16073 -0.17629,-0.21288 -0.0315,-0.38034 0.14251,-0.16485 0.19714,-0.17345 0.36276,-0.0572 0.2379,0.16699 0.24959,0.35598 0.0315,0.50906 -0.12418,0.0872 -0.21134,0.07 -0.36276,-0.0715 z m 1.98118,1.52018 c 0,-0.0564 -0.0851,-0.10255 -0.18903,-0.10255 -0.10396,0 -0.1553,0.0462 -0.11409,0.10255 0.0412,0.0564 0.12628,0.10255 0.18903,0.10255 0.0627,0 0.11409,-0.0461 0.11409,-0.10255 z m 1.09121,-0.86565 c 0,-0.0249 -0.0546,-0.0737 -0.12125,-0.1086 -0.0667,-0.0349 -0.12125,-0.0145 -0.12125,0.0452 0,0.0597 0.0546,0.10861 0.12125,0.10861 0.0667,0 0.12125,-0.0204 0.12125,-0.0452 z m 32.31196,33.188722 c -0.61873,-0.24441 -0.79496,-0.42951 -0.8721,-0.91596 -0.10038,-0.63301 0.19615,-1.08458 0.88899,-1.35377 0.32414,-0.12595 0.71626,-0.28066 0.87138,-0.34382 0.15512,-0.0631 0.68245,-0.11668 1.17184,-0.11895 0.71295,-0.003 0.95811,0.038 1.23352,0.2079 0.18906,0.11662 0.44168,0.24288 0.56139,0.28058 0.25334,0.0798 0.57044,0.66362 0.57044,1.05028 0,0.41852 -0.56159,0.80738 -1.51776,1.05092 -1.28134,0.32638 -2.31457,0.37712 -2.9077,0.14282 z m -9.11612,-3.3086 c -0.55745,-0.11435 -1.19206,-0.63152 -1.3251,-1.07987 -0.19065,-0.64249 0.50703,-1.54749 1.53491,-1.99103 1.12209,-0.48419 4.52633,-0.77165 5.90374,-0.49851 1.40098,0.27782 2.23202,0.53856 2.44443,0.76697 0.5635,0.60592 0.60976,1.20375 0.1432,1.85065 -0.25356,0.35157 -1.09951,0.64171 -2.49496,0.85573 -1.00912,0.15477 -5.57547,0.22544 -6.20622,0.0961 z m 20.1269,-4.60182 c -0.21248,-0.10958 -0.44436,-0.29097 -0.5153,-0.40309 -0.3417,-0.54004 0.006,-2.0441 0.5875,-2.54201 1.06219,-0.909352 1.82644,-0.729302 2.2601,0.53247 0.31498,0.91643 0.0369,1.9573 -0.64402,2.41031 -0.39542,0.26309 -1.18057,0.26416 -1.68828,0.002 z m -52.11362,-0.68721 c -0.30288,-0.53986 -0.27978,-2.45476 0.0328,-2.71915 0.2353,-0.199032 0.82863,-0.202892 1.11424,-0.007 0.32625,0.22345 0.34645,0.41003 0.19135,1.76768 -0.13746,1.20329 -0.20711,1.33319 -0.71479,1.33319 -0.3567,0 -0.44242,-0.0515 -0.62361,-0.37444 z m 33.07367,-4.676282 c -0.26145,-0.2858 -0.25233,-0.4703 0.0345,-0.69823 0.25109,-0.19952 0.33684,-0.21612 0.59748,-0.11567 0.3253,0.12536 0.3927,0.40568 0.1788,0.74373 -0.14119,0.22315 -0.63199,0.26563 -0.81079,0.0702 z m -12.82508,-1.14351 c -1.58876,-0.31409 -3.09176,-0.8911 -3.09176,-1.18694 0,-0.31069 0.27495,-0.35275 0.80665,-0.12339 0.71889,0.3101 2.43064,0.71994 3.4154,0.81773 2.17902,0.21638 5.315,-0.2991 6.51963,-1.07166 0.20635,-0.13234 0.41422,-0.24062 0.46194,-0.24062 0.0477,0 0.33686,-0.16152 0.64253,-0.35893 0.68375,-0.44159 0.88464,-0.45528 0.88464,-0.0603 0,0.25069 -0.1277,0.37573 -0.79511,0.77856 -1.79398,1.08279 -3.6278,1.58589 -5.99465,1.64462 -1.4007,0.0348 -1.81171,0.006 -2.84927,-0.19909 z m 10.434,0.0182 c -0.2589,-0.31264 -0.23653,-0.62668 0.0608,-0.85431 0.19046,-0.14579 0.29818,-0.16537 0.45468,-0.0827 0.33926,0.17928 0.55307,0.58949 0.4639,0.89 -0.0652,0.21978 -0.15268,0.27492 -0.43612,0.27492 -0.22894,0 -0.42143,-0.0807 -0.5433,-0.22793 z m 3.56289,-0.65931 c -0.19288,-0.42908 0.0119,-0.80488 0.43852,-0.80488 0.47791,0 0.67368,0.42545 0.37386,0.81247 -0.26909,0.34736 -0.65445,0.34377 -0.81238,-0.008 z m -15.14873,-1.12943 c -2.24584,-0.38332 -3.74337,-1.14548 -4.9478,-2.51816 -0.60042,-0.6843 -0.73964,-1.04149 -0.82967,-2.1287 -0.15288,-1.84622 0.52985,-3.55296 1.84641,-4.61576 0.85489,-0.69012 0.86296,-0.74517 0.22864,-1.55983 -0.23096,-0.29663 -0.41993,-0.61549 -0.41993,-0.70858 0,-0.28923 0.30118,-0.41904 0.74601,-0.32155 0.32527,0.0713 0.43857,0.17032 0.58636,0.51248 0.10076,0.23327 0.33252,0.52176 0.51501,0.64109 l 0.33181,0.21698 0.69878,-0.25851 c 0.38433,-0.14218 1.01408,-0.3333 1.39945,-0.42472 0.93766,-0.22242 1.15351,-0.48632 0.94554,-1.15601 -0.26802,-0.86306 -0.28487,-1.09925 -0.0883,-1.23725 0.13472,-0.0946 0.24907,-0.10044 0.42298,-0.0217 0.271,0.12267 0.8664,1.07006 0.87222,1.38785 0.008,0.44619 0.24474,0.5453 1.39426,0.58411 l 1.08742,0.0367 0.31915,-0.80322 c 0.36713,-0.92396 0.46752,-1.0382 0.82742,-0.94158 0.35541,0.0954 0.52544,0.51987 0.43745,1.09201 -0.11343,0.73762 0.0349,0.93735 0.85823,1.15561 1.14034,0.3023 1.62619,0.55831 2.54688,1.34202 0.94952,0.80824 1.29222,1.29147 1.63508,2.30558 0.28449,0.84141 0.30411,2.27393 0.0389,2.83628 -0.91841,1.94711 -2.24626,3.06897 -4.56699,3.85854 -1.6878,0.57422 -2.56314,0.71521 -4.64224,0.74773 -1.06696,0.0167 -2.07633,0.007 -2.24305,-0.0214 z m 5.39544,-1.00177 c 1.62868,-0.41094 3.45212,-1.30255 4.20709,-2.05714 0.41379,-0.41358 0.95309,-1.455 1.13229,-2.18651 0.16401,-0.66951 0.16406,-0.83767 4.6e-4,-1.56695 -0.26896,-1.19922 -0.65449,-1.80185 -1.67642,-2.6204 -0.78176,-0.62616 -0.9903,-0.73407 -1.90687,-0.98663 -1.32377,-0.36475 -3.78829,-0.54988 -5.16471,-0.38795 -0.9817,0.11549 -2.77167,0.53955 -3.38165,0.80114 -2.19827,0.94274 -3.24102,2.12146 -3.59882,4.06812 -0.35718,1.94327 0.55028,3.5589 2.56824,4.57242 1.17367,0.58949 2.05657,0.71891 4.60733,0.67541 1.87532,-0.032 2.24856,-0.0682 3.21301,-0.31151 z m -0.4895,-1.65708 c -1.18305,-0.35529 -2.04358,-1.3894 -2.03861,-2.44983 0.008,-1.61867 1.40649,-2.76719 3.3338,-2.73709 2.13648,0.0334 3.67177,1.48339 3.27447,3.0926 -0.24335,0.98565 -1.19113,1.91003 -2.21238,2.15776 -0.58375,0.14161 -1.78189,0.10936 -2.35728,-0.0634 z m 1.27759,-0.85294 c 0,-0.0384 -0.24943,-0.15689 -0.55429,-0.26323 -0.66508,-0.23198 -1.0219,-0.73138 -1.0219,-1.43025 0,-0.40871 0.0628,-0.51632 0.54794,-0.93851 0.4288,-0.37318 0.60675,-0.46354 0.81841,-0.41555 0.14876,0.0337 0.36579,0.0619 0.4823,0.0627 0.34697,0.002 1.12759,0.67804 1.30321,1.12812 0.15077,0.38641 0.14175,0.44899 -0.12246,0.85019 -0.15686,0.2382 -0.38432,0.49339 -0.50547,0.56709 -0.12114,0.0737 -0.22026,0.19821 -0.22026,0.27668 0,0.22318 0.66822,-0.0139 1.01132,-0.35875 0.33876,-0.34052 0.49801,-1.20993 0.32097,-1.75225 -0.26236,-0.8037 -1.50499,-1.34272 -2.44722,-1.06153 -0.25555,0.0763 -0.47752,0.14178 -0.49327,0.1456 -0.0157,0.004 -0.13774,0.0316 -0.27111,0.0617 -0.13337,0.0301 -0.41981,0.28796 -0.63654,0.57297 -0.32901,0.43267 -0.39405,0.61651 -0.39405,1.11381 0,0.52834 0.0421,0.63122 0.37306,0.91114 0.20519,0.17355 0.41508,0.31555 0.46643,0.31555 0.0514,0 0.20866,0.0846 0.34958,0.18794 0.24424,0.17918 0.99335,0.1992 0.99335,0.0266 z m 16.82706,-1.29681 c -0.93403,-0.42878 -0.64115,-2.77191 0.46919,-3.75377 0.60138,-0.53178 1.73684,-0.4649 2.14996,0.12664 0.25979,0.37197 0.30413,1.27837 0.0932,1.90538 -0.22972,0.68294 -0.8594,1.39025 -1.4692,1.65035 -0.62777,0.26776 -0.79456,0.27734 -1.24316,0.0714 z m -4.06836,-5.9857 c -1.18786,-0.47041 -1.79364,-1.59707 -1.77543,-3.30197 0.0103,-0.96161 0.0252,-1.01192 0.59315,-1.99978 0.92166,-1.60308 1.28048,-1.94518 2.42388,-2.31081 1.31377,-0.42011 2.34946,-0.19036 3.15266,0.69938 0.62679,0.69433 0.85183,1.412 0.84676,2.7004 -0.004,0.97488 -0.0422,1.15718 -0.40552,1.92591 -0.44354,0.93849 -1.21661,1.82268 -1.91103,2.18568 -0.64483,0.33709 -2.1935,0.39067 -2.92447,0.10119 z m -21.78189,-2.22882 c -0.0826,-0.182 0.7727,-0.93283 1.37012,-1.2028 0.17474,-0.079 0.61779,-0.27957 0.98456,-0.4458 0.64434,-0.29203 2.95409,-0.84812 3.52267,-0.84812 h 0.27822 l -0.27362,-0.24635 c -0.70809,-0.63752 0.0568,-1.03561 1.83572,-0.95542 1.10219,0.0497 1.54214,0.19392 1.79094,0.58714 0.1069,0.16895 0.0751,0.25239 -0.1776,0.46615 -0.1693,0.14319 -0.30782,0.27762 -0.30782,0.29872 0,0.0211 0.28645,0.11779 0.63654,0.21485 1.61257,0.44707 3.7283,1.57976 3.7283,1.996 0,0.30666 -0.25399,0.24972 -1.29378,-0.29001 -2.50883,-1.30228 -4.62383,-1.63662 -7.36679,-1.16457 -1.34131,0.23083 -2.69217,0.74433 -3.60698,1.37113 -0.60775,0.41639 -0.99649,0.49241 -1.12048,0.21908 z m -33.10967,-0.88561 c -0.33342,-0.0498 -0.73368,-0.11145 -0.88947,-0.1371 -0.81177,-0.13361 -1.1645,-1.05715 -0.5579,-1.46073 0.55179,-0.36712 1.14022,-0.46923 2.72045,-0.47206 1.32151,-0.002 1.57767,0.0254 2.00056,0.21712 0.73918,0.33505 0.95716,0.58112 0.82204,0.92795 -0.13386,0.34359 -0.63349,0.57063 -1.73138,0.78678 -1.07293,0.21123 -1.64867,0.24484 -2.3643,0.13804 z m 13.09453,-5.03762 c -0.0667,-0.0214 -0.60512,-0.0982 -1.19652,-0.17058 -1.60534,-0.19654 -2.15791,-0.60439 -1.96954,-1.4537 0.0669,-0.30144 0.16157,-0.39177 0.54779,-0.52248 0.91859,-0.31088 3.53243,-0.18752 4.34535,0.20507 1.01626,0.49081 1.17438,1.37352 0.31535,1.76048 -0.26061,0.11739 -1.81244,0.25508 -2.04243,0.18121 z m 21.03612,-0.66075 c -1.40442,-0.279 -1.78567,-0.41355 -2.11783,-0.74744 -0.37852,-0.38049 -0.41212,-0.97276 -0.0757,-1.3345 0.52332,-0.56272 1.93166,-1.03002 3.64531,-1.20953 2.4252,-0.25406 4.08793,-0.0803 5.75144,0.60103 1.18106,0.48374 1.32482,0.6169 1.33546,1.23711 0.009,0.50113 -0.0197,0.55298 -0.4666,0.85637 -0.71887,0.48797 -1.93484,0.67304 -4.79844,0.73032 -1.97257,0.0395 -2.51495,0.0174 -3.27363,-0.13336 z m -0.84872,-3.41917 c -1.86855,-0.11702 -2.42491,-0.32669 -2.42491,-0.91384 0,-0.73529 0.72477,-1.06232 2.61159,-1.17842 0.99117,-0.061 1.14773,-0.0451 1.63641,0.16573 0.65274,0.28167 0.79963,0.43845 0.89793,0.9584 0.15887,0.84036 -0.57757,1.10238 -2.72102,0.96813 z m -8.72968,-0.16037 c 0,-0.0428 0.12276,-0.14167 0.2728,-0.21963 0.27183,-0.14124 0.27198,-0.14097 0.0418,0.0779 -0.24711,0.23498 -0.31463,0.2654 -0.31463,0.14175 z m 22.30919,-0.24398 c -0.30008,-0.0364 -1.00291,-0.11595 -1.56183,-0.17684 -1.48613,-0.16189 -1.839,-0.43941 -1.67115,-1.31425 0.092,-0.47983 0.37101,-0.72626 0.97888,-0.8647 0.27282,-0.0621 0.49604,-0.11427 0.49604,-0.11585 0,-0.002 0.46054,-0.0594 1.02341,-0.12836 1.91288,-0.23455 3.15671,0.22359 3.33484,1.22831 0.0971,0.54773 -0.1721,1.12227 -0.57744,1.23234 -0.50798,0.13793 -1.48125,0.20499 -2.02275,0.13935 z m -21.53407,-0.35311 c 0.0405,-0.0892 0.0736,-0.20459 0.0736,-0.25638 0,-0.0518 0.047,-0.0942 0.10444,-0.0942 0.0574,0 0.0784,0.11537 0.0465,0.25638 -0.0318,0.14101 -0.11198,0.25638 -0.17802,0.25638 -0.066,0 -0.087,-0.073 -0.0465,-0.16221 z m -7.64267,-1.95794 c -1.04256,-0.54937 -1.90713,-1.2221 -1.81933,-1.41563 0.11658,-0.25696 0.32509,-0.18253 0.99912,0.35665 0.35254,0.28202 0.75411,0.51277 0.89237,0.51277 0.24334,0 0.24532,-0.0123 0.0618,-0.38458 -0.10424,-0.21151 -0.39708,-0.66146 -0.65073,-0.99989 -0.25366,-0.33842 -0.60966,-0.83708 -0.79111,-1.10812 -0.19238,-0.28737 -0.46514,-0.53771 -0.65428,-0.60051 -0.98713,-0.32774 -1.12819,-0.40241 -1.08601,-0.574927 0.0445,-0.182056 0.2352,-0.205677 0.61007,-0.07557 0.12886,0.04472 0.21218,0.02775 0.21218,-0.04318 0,-0.178905 -0.33138,-0.737309 -0.66781,-1.125286 -0.32286,-0.372341 -0.39866,-0.913342 -0.15666,-1.118042 0.22069,-0.186657 0.76099,-0.147269 0.99627,0.07264 0.15249,0.142514 0.21648,0.403117 0.23549,0.958944 0.0446,1.305637 0.46458,1.558091 1.74987,1.051979 0.5246,-0.206571 0.65368,-0.225983 0.70791,-0.106462 0.10278,0.226557 -0.0459,0.351546 -0.75704,0.636334 -0.36171,0.14486 -0.68613,0.30235 -0.72095,0.34999 -0.079,0.1081 0.11237,0.42478 1.24882,2.06679 0.93306,1.34814 1.12968,1.49427 1.51787,1.12807 0.22269,-0.21007 0.63423,-1.21844 0.75628,-1.85308 0.0473,-0.24581 0.16621,-0.46929 0.26721,-0.50207 0.76506,-0.24832 0.18362,1.96594 -0.71004,2.70404 -0.67705,0.55919 -1.27628,0.57767 -2.24134,0.0691 z"
       id="path2972"
       inkscape:connector-curvature="0" />
  </g>
  <g
     id="g2714"
     inkscape:groupmode="layer"
     inkscape:label="newlayer" />
  <g
     id="g2915"
     inkscape:groupmode="layer"
     inkscape:label="newlayer" />
</svg>
